<?xml version="1.0" encoding="utf-8"?>
<!-- Generator: Adobe Illustrator 19.0.0, SVG Export Plug-In . SVG Version: 6.00 Build 0)  -->
<svg version="1.1" id="_x3C_Layer_x3E_" xmlns="http://www.w3.org/2000/svg" xmlns:xlink="http://www.w3.org/1999/xlink" x="0px"
	 y="0px" viewBox="-289 381 32 32" style="enable-background:new -289 381 32 32;" xml:space="preserve">
<style type="text/css">
	.st0{fill:#FFFFFF;}
</style>
<g id="clock_time">
	<g>
		<path class="st0" d="M-273,412c-8.3,0-15-6.7-15-15c0-3.6,1.3-7.2,3.7-9.9c0.2-0.2,0.5-0.2,0.7,0c0.2,0.2,0.2,0.5,0,0.7
			c-2.2,2.6-3.5,5.8-3.5,9.2c0,7.7,6.3,14,14,14s14-6.3,14-14s-6.3-14-14-14c-2.5,0-5,0.7-7.1,1.9c-0.2,0.1-0.5,0.1-0.7-0.2
			c-0.1-0.2-0.1-0.5,0.2-0.7c2.3-1.4,4.9-2.1,7.6-2.1c8.3,0,15,6.7,15,15S-264.7,412-273,412z"/>
	</g>
	<g>
		<path class="st0" d="M-273,409.5c-6.9,0-12.5-5.6-12.5-12.5s5.6-12.5,12.5-12.5s12.5,5.6,12.5,12.5S-266.1,409.5-273,409.5z
			 M-273,385.5c-6.3,0-11.5,5.2-11.5,11.5s5.2,11.5,11.5,11.5s11.5-5.2,11.5-11.5S-266.7,385.5-273,385.5z"/>
	</g>
	<g>
		<g>
			<g>
				<path class="st0" d="M-268.3,389.3c-0.1,0-0.3,0-0.4-0.1c-0.1-0.1-0.1-0.2-0.1-0.4c0-0.1,0-0.3,0.1-0.3c0.2-0.2,0.5-0.2,0.7,0
					c0.1,0.1,0.1,0.2,0.1,0.3c0,0.1,0,0.3-0.1,0.4C-268,389.2-268.1,389.3-268.3,389.3z"/>
			</g>
			<g>
				<path class="st0" d="M-277.8,405.7c-0.1,0-0.3-0.1-0.4-0.1c-0.1-0.1-0.1-0.2-0.1-0.4c0-0.1,0-0.3,0.1-0.4c0.2-0.2,0.5-0.2,0.7,0
					c0.1,0.1,0.1,0.2,0.1,0.4c0,0.1,0,0.3-0.1,0.4C-277.5,405.7-277.6,405.7-277.8,405.7z"/>
			</g>
		</g>
		<g>
			<g>
				<path class="st0" d="M-264.8,392.8c-0.1,0-0.3,0-0.4-0.1c-0.1-0.1-0.1-0.2-0.1-0.4s0.1-0.3,0.1-0.4c0.2-0.2,0.5-0.2,0.7,0
					c0.1,0.1,0.1,0.2,0.1,0.4s0,0.3-0.1,0.4C-264.5,392.7-264.6,392.8-264.8,392.8z"/>
			</g>
			<g>
				<path class="st0" d="M-281.2,402.3c-0.1,0-0.3,0-0.3-0.1c-0.1-0.1-0.2-0.2-0.2-0.4c0-0.1,0.1-0.3,0.1-0.4c0.2-0.2,0.5-0.2,0.7,0
					c0.1,0.1,0.1,0.2,0.1,0.4s0,0.3-0.1,0.4C-281,402.2-281.1,402.3-281.2,402.3z"/>
			</g>
		</g>
		<g>
			<g>
				<path class="st0" d="M-263.5,397.5c-0.1,0-0.3,0-0.4-0.1c-0.1-0.1-0.1-0.2-0.1-0.4s0-0.3,0.1-0.4c0.2-0.2,0.5-0.2,0.7,0
					c0.1,0.1,0.2,0.2,0.2,0.4s0,0.3-0.1,0.4C-263.2,397.5-263.4,397.5-263.5,397.5z"/>
			</g>
			<g>
				<path class="st0" d="M-282.5,397.5c-0.1,0-0.3,0-0.4-0.1c-0.1-0.1-0.1-0.2-0.1-0.4s0-0.3,0.1-0.4c0.2-0.2,0.5-0.2,0.7,0
					c0.1,0.1,0.2,0.2,0.2,0.4s0,0.3-0.1,0.4C-282.2,397.5-282.4,397.5-282.5,397.5z"/>
			</g>
		</g>
		<g>
			<g>
				<path class="st0" d="M-264.8,402.3c-0.1,0-0.3,0-0.4-0.1c-0.1-0.1-0.1-0.2-0.1-0.4s0.1-0.3,0.1-0.4c0.2-0.2,0.5-0.2,0.7,0
					c0.1,0.1,0.1,0.2,0.1,0.4s0,0.3-0.1,0.4C-264.5,402.2-264.6,402.3-264.8,402.3z"/>
			</g>
			<g>
				<path class="st0" d="M-281.2,392.8c-0.1,0-0.3,0-0.3-0.1c-0.1-0.1-0.2-0.2-0.2-0.4c0-0.1,0.1-0.3,0.1-0.4c0.2-0.2,0.5-0.2,0.7,0
					c0.1,0.1,0.1,0.2,0.1,0.4s0,0.3-0.1,0.4C-281,392.7-281.1,392.8-281.2,392.8z"/>
			</g>
		</g>
		<g>
			<g>
				<path class="st0" d="M-268.3,405.7c-0.1,0-0.3,0-0.4-0.1c-0.1-0.1-0.1-0.2-0.1-0.4s0-0.3,0.1-0.4c0.2-0.2,0.5-0.2,0.7,0
					c0.1,0.1,0.1,0.2,0.1,0.4c0,0.1,0,0.3-0.1,0.4C-268,405.7-268.1,405.7-268.3,405.7z"/>
			</g>
			<g>
				<path class="st0" d="M-277.8,389.3c-0.1,0-0.3,0-0.4-0.1c-0.1-0.1-0.1-0.2-0.1-0.4s0-0.3,0.1-0.3c0.2-0.2,0.5-0.2,0.7,0
					c0.1,0.1,0.1,0.2,0.1,0.4c0,0.1,0,0.3-0.1,0.4C-277.5,389.2-277.6,389.3-277.8,389.3z"/>
			</g>
		</g>
		<g>
			<g>
				<path class="st0" d="M-273,407c-0.1,0-0.3,0-0.4-0.1c-0.1-0.1-0.1-0.2-0.1-0.4s0-0.3,0.1-0.4c0.2-0.2,0.5-0.2,0.7,0
					c0.1,0.1,0.1,0.2,0.1,0.4s0,0.3-0.1,0.4C-272.7,407-272.9,407-273,407z"/>
			</g>
			<g>
				<path class="st0" d="M-273,388c-0.1,0-0.3,0-0.4-0.1c-0.1-0.1-0.1-0.2-0.1-0.4c0-0.1,0-0.3,0.1-0.4c0.2-0.2,0.5-0.2,0.7,0
					c0.1,0.1,0.1,0.2,0.1,0.4s0,0.3-0.1,0.4C-272.7,388-272.9,388-273,388z"/>
			</g>
		</g>
	</g>
	<g>
		<g>
			<path class="st0" d="M-266.6,390.6c-0.2-0.2-0.5-0.2-0.7,0l-5.4,5.4c0.4,0.1,0.6,0.4,0.7,0.7l5.4-5.4
				C-266.4,391.1-266.4,390.8-266.6,390.6z"/>
			<path class="st0" d="M-273.2,396l-6.1-6.1c-0.2-0.2-0.5-0.2-0.7,0c-0.2,0.2-0.2,0.5,0,0.7l6.1,6.1
				C-273.9,396.4-273.6,396.1-273.2,396z"/>
		</g>
		<path class="st0" d="M-273,398.5c-0.8,0-1.5-0.7-1.5-1.5s0.7-1.5,1.5-1.5s1.5,0.7,1.5,1.5S-272.2,398.5-273,398.5z M-273,396.5
			c-0.3,0-0.5,0.2-0.5,0.5s0.2,0.5,0.5,0.5s0.5-0.2,0.5-0.5S-272.7,396.5-273,396.5z"/>
	</g>
	<g>
		<g>
			<g>
				<g>
					<g>
						<g>
							<g>
								<path class="st0" d="M-281.5,385.5c0,0.3-0.2,0.5-0.5,0.5l0,0c-0.3,0-0.5-0.2-0.5-0.5l0,0c0-0.3,0.2-0.5,0.5-0.5l0,0
									C-281.7,385-281.5,385.2-281.5,385.5L-281.5,385.5z"/>
							</g>
						</g>
					</g>
				</g>
			</g>
		</g>
	</g>
</g>
</svg>
