<?xml version="1.0" encoding="utf-8"?>
<!-- Generator: Adobe Illustrator 19.0.0, SVG Export Plug-In . SVG Version: 6.00 Build 0)  -->
<svg version="1.1" id="Capa_1" xmlns="http://www.w3.org/2000/svg" xmlns:xlink="http://www.w3.org/1999/xlink" x="0px" y="0px"
	 viewBox="-49 141 512 512" style="enable-background:new -49 141 512 512;" xml:space="preserve">
<style type="text/css">
	.st0{fill:#FFFFFF;}
	.st1{fill:#FCFCFC;}
</style>
<g>
	<g>
		<path class="st0" d="M207,181c-5.5,0-10,4.5-10,10s4.5,10,10,10c5.5,0,10-4.5,10-10S212.5,181,207,181z"/>
	</g>
</g>
<g>
	<g>
		<path class="st1" d="M187.5,142.1c-74.7,8.3-136.7,67.4-148.4,141.6c-9,57,11,114.1,53.5,152.8c15.5,14.1,24.4,34,24.4,54.5v72
			c0,24.4,17.6,44.8,40.9,49.1c4.3,23.2,24.7,40.9,49.1,40.9c24.9,0,45-18,49.2-40.9c23.2-4.3,40.8-24.7,40.8-49.1v-72c0,0,0,0,0,0
			s0,0,0,0c0-20.6,8.8-40.4,24.1-54.3c35.5-32.2,55.9-78,55.9-125.7C377,211.4,290.4,130.6,187.5,142.1z M207,633
			c-13,0-24.2-8.5-28.3-20.1h56.6C231.2,624.3,220.3,633,207,633z M277,527h-30c-5.5,0-10,4.5-10,10s4.5,10,10,10h30v16
			c0,16.5-13.5,30-30,30h-80c-16.5,0-30-13.5-30-30v-16h30c5.5,0,10-4.5,10-10s-4.5-10-10-10h-30v-26h140L277,527L277,527z
			 M307.6,421.9c-17,15.4-27.7,36.5-30.1,59.1H136.4c-2.5-22.5-13.2-43.7-30.4-59.3C68.6,387.6,51,337.1,58.9,286.8
			c10.2-65,65.3-117.5,130.9-124.8c92-10.3,167.2,62.2,167.2,149C357,353.1,339,393.5,307.6,421.9z"/>
	</g>
</g>
<g>
	<g>
		<path class="st0" d="M249.7,188.2c-5.2-1.8-10.9,0.9-12.7,6.2c-1.8,5.2,0.9,10.9,6.2,12.7C286,222,317,263.3,317,311
			c0,5.5,4.5,10,10,10s10-4.5,10-10C337,254.6,300.5,205.8,249.7,188.2z"/>
	</g>
</g>
<g>
	<g>
		<path class="st0" d="M211.7,322.9c-14.9-7.9-24.7-13.6-24.7-21.2c0-11,9-20,20-20c11,0,20,9,20,20c0,5.5,4.5,10,10,10
			s10-4.5,10-10c0-18.6-12.8-34.3-30-38.7v-11.3c0-5.5-4.5-10-10-10c-5.5,0-10,4.5-10,10V263c-17.2,4.5-30,20.1-30,38.7
			c0,20.2,18.8,30.1,35.3,38.8c14.9,7.9,24.7,13.6,24.7,21.2c0,11-9,20-20,20c-11,0-20-9-20-20c0-5.5-4.5-10-10-10s-10,4.5-10,10
			c0,18.6,12.8,34.3,30,38.7v11.3c0,5.5,4.5,10,10,10c5.5,0,10-4.5,10-10v-11.3c17.2-4.5,30-20.1,30-38.7
			C247,341.5,228.2,331.6,211.7,322.9z"/>
	</g>
</g>
</svg>
