<?xml version="1.0" encoding="utf-8"?>
<!-- Generator: Adobe Illustrator 19.0.0, SVG Export Plug-In . SVG Version: 6.00 Build 0)  -->
<svg version="1.1" id="Capa_1" xmlns="http://www.w3.org/2000/svg" xmlns:xlink="http://www.w3.org/1999/xlink" x="0px" y="0px"
	 viewBox="-57 149 496 496" style="enable-background:new -57 149 496 496;" xml:space="preserve">
<style type="text/css">
	.st0{fill:#FFFFFF;}
</style>
<g>
	<g>
		<g>
			<path class="st0" d="M373.2,209.1c-32.6-38.2-81.8-60.1-135-60.1h-51.7c-27.8,0-53.5,5.6-76.3,16.6
				c-60.4,29.2-97.9,88.6-97.9,155.2c0,20.5-9.2,39.6-25.2,52.4l-17.4,13.9l3.9,6.1c26.8,41.8,46.6,87.3,59,135.4l2.5,9.7
				c4.3,16.7,15,30.2,29.4,37.1c15.9,7.7,34.6,7.3,50.2-1.1L232.2,508l-7.9-13.9l-117.5,66.3c-10.9,5.9-24.2,6.2-35.5,0.7
				c-10.1-4.9-17.7-14.6-20.8-26.7l-2.5-9.7c-0.7-2.6-1.4-5.1-2.1-7.7h22.3v-16h-27c-12.1-38.7-29-75.7-50.4-110.2l6.2-5
				c19.8-15.9,31.2-39.5,31.2-64.9c0-60.4,34.1-114.4,88.9-140.8c20.7-10,44-15,69.4-15h51.7c2,0,4,0.1,6,0.2V189h16v-22.6
				c39.9,5.1,75.8,23.7,100.8,53c28.7,33.6,40.5,77.3,33.2,123c-3.2,20-10.1,38.8-20.5,55.8c-42.9,69.9-65.5,146.2-65.5,220.6V629
				h-48V477h-16v152h-80v-64h-16v80h176v-26.1c0-71.5,21.8-144.9,63.2-212.3c11.5-18.8,19.2-39.5,22.7-61.6
				C418.1,294.6,405,246.4,373.2,209.1z"/>
			<rect x="52.2" y="349" class="st0" width="48" height="16"/>
			<path class="st0" d="M300.2,317c0-26.5-21.5-48-48-48s-48,21.5-48,48s21.5,48,48,48S300.2,343.5,300.2,317z M252.2,349
				c-17.6,0-32-14.4-32-32s14.4-32,32-32s32,14.4,32,32S269.9,349,252.2,349z"/>
			<path class="st0" d="M214.9,405.3c0.5,0.2,0.9,0.4,1.4,0.6L222,429h60.5l5.8-23.1c0.5-0.2,0.9-0.4,1.4-0.6l20.4,12.2l42.8-42.8
				l-12.2-20.4c0.2-0.5,0.4-0.9,0.6-1.4l23.1-5.8v-60.5l-23.1-5.8c-0.7-1.8-1.5-3.6-2.4-5.3l-14.4,6.9c1.2,2.6,2.3,5.2,3.3,7.9
				l1.4,4.1l19.2,4.8v35.5l-19.2,4.8l-1.4,4.1c-0.9,2.7-2,5.3-3.3,7.8l-1.9,3.9l10.2,17l-25.1,25.1l-17-10.2l-3.9,1.9
				c-2.5,1.2-5.2,2.3-7.9,3.3l-4.1,1.4L270,413h-35.5l-4.8-19.2l-4-1.4c-2.7-1-5.3-2-7.9-3.3l-3.9-1.9l-17,10.2l-29.5-29.5
				l-11.3,11.3l38.4,38.4L214.9,405.3z"/>
			<path class="st0" d="M140.2,286.8v60.5l23.1,5.8c0.7,1.8,1.5,3.6,2.4,5.3l14.4-6.9c-1.2-2.5-2.3-5.2-3.3-7.8l-1.4-4.1l-19.2-4.8
				v-35.5l19.2-4.8l1.4-4.1c0.9-2.7,2-5.3,3.3-7.9l1.8-3.9l-10.2-17l25.1-25.1l17,10.2l3.9-1.9c2.5-1.2,5.2-2.3,7.9-3.3l4-1.4
				l4.8-19.2H270l4.8,19.2l4,1.4c2.7,1,5.3,2,7.9,3.3l3.9,1.9l17-10.2l29.5,29.5l11.3-11.3L310,216.4l-20.4,12.2
				c-0.5-0.2-0.9-0.4-1.4-0.6l-5.7-23.1H222l-5.8,23.1c-0.5,0.2-0.9,0.4-1.4,0.6l-20.4-12.2l-42.8,42.8l12.2,20.4
				c-0.2,0.5-0.4,0.9-0.6,1.4L140.2,286.8z"/>
			<rect x="244.2" y="237" class="st0" width="16" height="16"/>
			
				<rect x="193.3" y="258.1" transform="matrix(-0.7072 -0.707 0.707 -0.7072 155.5926 596.6273)" class="st0" width="16" height="16"/>
			<rect x="172.2" y="309" class="st0" width="16" height="16"/>
			
				<rect x="193.3" y="359.9" transform="matrix(0.7072 -0.707 0.707 0.7072 -201.1341 250.0551)" class="st0" width="16" height="16"/>
			<rect x="244.2" y="381" class="st0" width="16" height="16"/>
			
				<rect x="295.1" y="359.9" transform="matrix(-0.7072 -0.707 0.707 -0.7072 257.3738 842.4598)" class="st0" width="16" height="16"/>
			<rect x="316.2" y="309" class="st0" width="16" height="16"/>
			
				<rect x="295.1" y="258.1" transform="matrix(-0.707 -0.7072 0.7072 -0.707 329.2368 668.6552)" class="st0" width="16" height="16"/>
			<rect x="244.2" y="445" class="st0" width="16" height="16"/>
		</g>
	</g>
</g>
</svg>
