<?xml version="1.0" encoding="utf-8"?>
<!-- Generator: Adobe Illustrator 19.0.0, SVG Export Plug-In . SVG Version: 6.00 Build 0)  -->
<svg version="1.1" id="Camada_1" xmlns="http://www.w3.org/2000/svg" xmlns:xlink="http://www.w3.org/1999/xlink" x="0px" y="0px"
	 viewBox="0 0 150 150" style="enable-background:new 0 0 150 150;" xml:space="preserve">
<style type="text/css">
	.st0{fill:#E5B321;}
</style>
<g id="XMLID_3_">
	<g id="XMLID_13_">
		<path id="XMLID_43_" class="st0" d="M149.98,59.98c0,7.96,0,15.91,0,23.87c0,0.17,0.08,0.38-0.05,0.5
			c-0.14,0.14-0.39,0.06-0.59,0.06c-3.39,0-6.78,0-10.17,0c-0.68,0-0.59-0.08-0.59,0.52c0,2.78,0,5.55,0,8.33
			c0,0.16,0.07,0.34-0.04,0.46c-0.12,0.13-0.33,0.04-0.5,0.04c-0.65,0.01-1.29,0-1.94,0c-0.12,0-0.23,0-0.35,0
			c-0.1,0-0.17-0.04-0.17-0.14c0-0.12,0-0.24,0-0.36c0-2.78,0-5.55,0-8.33c0-0.61,0.1-0.52-0.58-0.52c-3.43,0-6.87,0-10.3,0
			c-0.59,0-0.49,0.04-0.49-0.44c0-6.93,0-13.87-0.01-20.8c0-0.32,0.09-0.54,0.32-0.78c0.69-0.7,1.35-1.42,2.03-2.13
			c0.48-0.5,0.96-1,1.43-1.5c0.48-0.51,0.96-1.03,1.43-1.55c0.08-0.09,0.18-0.17,0.27-0.26c0.51-0.53,1.03-1.05,1.51-1.6
			c0.46-0.51,0.95-1.01,1.42-1.51c0.52-0.55,1.05-1.1,1.57-1.65c0.53-0.56,1.09-1.1,1.59-1.69c0.25-0.29,0.55-0.55,0.82-0.83
			c0.17-0.18,0.33-0.37,0.5-0.55c0.49-0.51,0.98-1.02,1.46-1.53c0.58-0.61,1.15-1.23,1.73-1.84c0.48-0.5,0.96-1,1.43-1.5
			c0.48-0.51,0.96-1.03,1.43-1.55c0.07-0.08,0.16-0.15,0.24-0.23c0.53-0.55,1.07-1.09,1.57-1.66c0.45-0.5,0.93-0.98,1.39-1.48
			c0.52-0.55,1.04-1.11,1.57-1.65c0.53-0.55,1.04-1.11,1.56-1.66c0.12-0.13,0.25-0.26,0.37-0.39c0.02-0.02,0.05-0.02,0.08-0.02
			c0.04,0,0.05,0.02,0.05,0.05c0,0.13,0,0.27,0,0.4C149.98,44.04,149.98,52.01,149.98,59.98z"/>
	</g>
	<g id="XMLID_12_">
		<path id="XMLID_41_" class="st0" d="M0.02,59.98c0-7.96,0-15.91,0-23.87c0-0.15-0.07-0.31,0.07-0.44c0.16,0.06,0.23,0.19,0.34,0.3
			c0.64,0.67,1.28,1.34,1.92,2.02c0.62,0.65,1.24,1.31,1.86,1.96c0.79,0.84,1.58,1.67,2.38,2.5c0.62,0.65,1.24,1.31,1.86,1.97
			c0.79,0.84,1.59,1.67,2.38,2.5c0.61,0.64,1.22,1.29,1.83,1.94c0.8,0.85,1.61,1.69,2.41,2.53c0.6,0.63,1.2,1.27,1.8,1.91
			c0.81,0.86,1.62,1.71,2.43,2.56c0.6,0.63,1.2,1.27,1.8,1.91c0.81,0.86,1.62,1.71,2.44,2.56c0.62,0.65,1.24,1.31,1.85,1.97
			c0.05,0.05,0.09,0.11,0.14,0.15c0.25,0.18,0.3,0.42,0.3,0.71c-0.01,6.93,0,13.87-0.01,20.8c0,0.51,0.07,0.45-0.48,0.45
			c-3.45,0-6.9,0-10.34,0c-0.62,0-0.54-0.07-0.54,0.48c0,2.76,0,5.53,0,8.29c0,0.09,0,0.19,0,0.28c-0.01,0.3-0.01,0.31-0.35,0.31
			c-0.82,0-1.64,0-2.46,0c-0.15,0-0.18-0.03-0.19-0.16c-0.01-0.12,0-0.24,0-0.36c0-2.79,0-5.58,0-8.37c0-0.53,0.06-0.48-0.51-0.48
			c-3.46,0-6.92,0-10.39,0c-0.55,0-0.5,0.06-0.5-0.44C0.02,75.97,0.02,67.98,0.02,59.98z"/>
	</g>
	<g id="XMLID_11_">
		<path id="XMLID_39_" class="st0" d="M25.79,58.28c-0.26-0.17-0.38-0.36-0.53-0.52c-0.94-0.98-1.88-1.97-2.81-2.96
			c-0.95-1.01-1.9-2.02-2.86-3.02c-1.17-1.24-2.35-2.47-3.52-3.71c-1.3-1.37-2.59-2.74-3.89-4.11c-1.16-1.23-2.33-2.45-3.49-3.68
			c-1.16-1.23-2.32-2.46-3.48-3.69c-0.92-0.98-1.85-1.95-2.78-2.93c-0.75-0.78-1.49-1.57-2.24-2.35c-0.11-0.12-0.14-0.05-0.16-0.4
			c0-0.41,0-0.19,0-0.28c0-6.87,0-13.73,0-20.6c0-0.13,0-0.27,0-0.4c0-0.1,0.07-0.14,0.17-0.14c0.13,0,0.26,0,0.4,0
			c3.42,0,6.84,0,10.25,0c0.62,0,0.57,0.06,0.57-0.51c0-2.79,0-5.58,0-8.37c0-0.12,0-0.24,0.01-0.36C11.43,0.15,11.5,0.1,11.6,0.1
			c0.07,0,0.15,0,0.22,0c0.75,0,1.5,0,2.24,0c0.07,0,0.15,0,0.22,0.01c0.08,0.01,0.13,0.05,0.14,0.13c0.01,0.12,0.01,0.24,0.01,0.36
			c0,2.78,0,5.55,0,8.33c0,0.64-0.09,0.56,0.64,0.56c3.4,0,6.81,0,10.21,0c0.59,0,0.52-0.05,0.52,0.46c0,15.94,0,31.88,0,47.82
			C25.8,57.92,25.79,58.07,25.79,58.28z"/>
	</g>
	<g id="XMLID_10_">
		<path id="XMLID_37_" class="st0" d="M124.28,58.24c-0.09-0.07-0.07-0.12-0.07-0.17c0-0.15,0-0.29,0-0.44c0-15.86,0-31.72,0-47.58
			c0-0.66-0.11-0.57,0.62-0.57c3.4,0,6.81,0,10.21,0c0.6,0,0.54,0.06,0.54-0.49c0-2.8,0-5.61,0-8.41c0-0.54-0.06-0.48,0.55-0.48
			c0.67,0,1.35,0,2.02,0c0.1,0,0.21,0,0.31,0.01c0.06,0.01,0.11,0.05,0.11,0.1c0.01,0.13,0.01,0.26,0.01,0.4c0,2.76,0,5.53,0,8.29
			c0,0.66-0.08,0.58,0.62,0.58c3.37,0,6.75,0,10.12,0c0.09,0,0.18,0,0.26,0c0.38,0,0.39,0,0.39,0.35c0,0.39,0,0.77,0,1.16
			c0,6.55,0,13.1,0,19.65c0,0.48,0,0.48-0.35,0.85c-0.89,0.94-1.78,1.87-2.66,2.8c-0.86,0.9-1.71,1.81-2.57,2.72
			c-0.55,0.58-1.11,1.17-1.66,1.75c-0.86,0.91-1.71,1.81-2.57,2.72c-0.55,0.58-1.11,1.17-1.66,1.75c-0.86,0.91-1.71,1.81-2.57,2.72
			c-0.55,0.58-1.11,1.17-1.66,1.75c-0.86,0.91-1.71,1.81-2.57,2.72c-0.55,0.58-1.11,1.17-1.66,1.75c-0.86,0.91-1.71,1.81-2.57,2.72
			c-0.54,0.57-1.08,1.15-1.63,1.72c-0.45,0.47-0.89,0.95-1.34,1.42C124.45,58.08,124.37,58.15,124.28,58.24z"/>
	</g>
	<g id="XMLID_9_">
		<path id="XMLID_35_" class="st0" d="M118.92,68.44c0,0.16,0,0.27,0,0.39c0,11.28,0,22.56,0,33.84c0,0.55,0.07,0.48-0.54,0.48
			c-3.37,0-6.75,0-10.12,0c-0.22,0-0.48-0.08-0.64,0.05c-0.16,0.13-0.06,0.38-0.06,0.57c0,4.3,0,8.61,0,12.91
			c0,0.59,0.07,0.53-0.59,0.53c-0.65,0-1.29,0-1.94,0c-0.1,0-0.21,0-0.31,0c-0.14-0.01-0.19-0.05-0.19-0.17
			c-0.01-0.12,0-0.24,0-0.36c0-4.32,0-8.63,0-12.95c0-0.12,0-0.24,0-0.36c-0.01-0.2-0.02-0.21-0.26-0.22c-0.12,0-0.23,0-0.35,0
			c-3.42,0-6.84,0-10.26,0c-0.55,0-0.5,0.05-0.5-0.44c0-2.26,0-4.52-0.01-6.78c0-0.25,0.05-0.46,0.26-0.65
			c0.14-0.13,0.26-0.28,0.4-0.42c0.48-0.5,0.96-1,1.43-1.5c0.48-0.51,0.96-1.03,1.44-1.55c0.08-0.09,0.18-0.17,0.27-0.26
			c0.51-0.53,1.03-1.05,1.51-1.6c0.46-0.51,0.96-1,1.41-1.51c0.57-0.65,1.21-1.25,1.81-1.88c0.6-0.63,1.2-1.27,1.8-1.9
			c0.82-0.86,1.64-1.72,2.46-2.59c0.6-0.63,1.19-1.27,1.79-1.9c0.81-0.85,1.62-1.7,2.43-2.56c0.6-0.63,1.19-1.27,1.79-1.9
			c0.4-0.42,0.81-0.83,1.2-1.27c0.49-0.55,1.03-1.04,1.49-1.61c0.09-0.11,0.2-0.19,0.29-0.29c0.48-0.5,0.96-1,1.44-1.5
			c0.48-0.51,0.95-1.04,1.44-1.55c0.32-0.34,0.66-0.67,0.99-1.01C118.8,68.47,118.83,68.47,118.92,68.44z"/>
	</g>
	<g id="XMLID_8_">
		<path id="XMLID_33_" class="st0" d="M93.15,91.03c0-0.13,0-0.26,0-0.39c0-11.26,0-22.53,0-33.79c0-0.13,0-0.27,0.01-0.4
			c0-0.06,0.05-0.1,0.11-0.1c0.15-0.01,0.29-0.01,0.44-0.01c3.39,0,6.78,0,10.17,0c0.74,0,0.64,0.08,0.64-0.56
			c0-4.33,0-8.66,0-12.99c0-0.61-0.08-0.52,0.59-0.52c0.67,0,1.35,0,2.02,0c0.09,0,0.18,0,0.26,0c0.11,0,0.15,0.07,0.15,0.16
			c0,0.12,0,0.24,0,0.36c0,4.34,0,8.69,0,13.03c0,0.12,0,0.24,0,0.36c0,0.1,0.06,0.15,0.16,0.15c0.15,0.01,0.29,0.01,0.44,0.01
			c3.39,0,6.78,0,10.17,0c0.13,0,0.26,0,0.4,0c0.16,0.01,0.19,0.04,0.2,0.2c0,0.09,0,0.19,0,0.28c0,2.22,0,4.44,0,6.65
			c0,0.05-0.01,0.11,0,0.16c0.04,0.22-0.07,0.38-0.22,0.54c-0.43,0.45-0.86,0.9-1.29,1.36c-0.88,0.93-1.75,1.85-2.62,2.78
			c-0.54,0.57-1.09,1.14-1.63,1.71c-0.86,0.9-1.71,1.81-2.57,2.72c-0.55,0.58-1.11,1.16-1.66,1.75c-0.86,0.91-1.71,1.81-2.57,2.72
			c-0.54,0.57-1.09,1.15-1.63,1.72c-0.86,0.9-1.72,1.81-2.57,2.71c-0.55,0.58-1.1,1.17-1.65,1.75c-0.86,0.9-1.71,1.81-2.57,2.71
			c-0.56,0.59-1.13,1.19-1.69,1.78c-0.86,0.91-1.71,1.81-2.57,2.72c-0.15,0.16-0.31,0.31-0.46,0.47
			C93.2,91.05,93.17,91.04,93.15,91.03z"/>
	</g>
	<g id="XMLID_7_">
		<path id="XMLID_31_" class="st0" d="M56.84,73.74c0,5.61,0,11.21,0,16.82c0,0.15,0.07,0.31-0.07,0.45
			c-0.17-0.05-0.24-0.19-0.34-0.3c-0.88-0.92-1.75-1.85-2.63-2.78c-0.53-0.56-1.07-1.13-1.61-1.69c-0.87-0.92-1.73-1.84-2.6-2.75
			c-0.56-0.59-1.13-1.18-1.69-1.78c-0.84-0.89-1.67-1.78-2.51-2.66c-0.55-0.58-1.11-1.16-1.66-1.75c-0.86-0.91-1.71-1.82-2.57-2.72
			c-0.54-0.57-1.09-1.15-1.63-1.72c-0.87-0.92-1.73-1.84-2.6-2.75c-0.55-0.58-1.11-1.16-1.67-1.75c-0.85-0.9-1.69-1.8-2.54-2.69
			c-0.48-0.5-0.95-1.01-1.44-1.5c-0.15-0.16-0.22-0.32-0.22-0.54c0.01-2.3,0.01-4.6,0.01-6.89c0-0.41-0.02-0.39,0.43-0.39
			c3.43,0,6.87,0,10.3,0c0.15,0,0.29,0,0.44-0.01c0.16-0.01,0.2-0.04,0.2-0.2c0.01-0.13,0-0.27,0-0.4c0-4.33,0-8.66,0-12.99
			c0-0.55-0.07-0.48,0.54-0.48c0.66,0,1.32,0,1.98,0c0.1,0,0.21,0,0.31,0c0.1,0,0.17,0.04,0.17,0.14c0,0.13,0,0.27,0,0.4
			c0,4.3,0,8.61,0,12.91c0,0.09,0,0.19,0,0.28c0,0.34,0,0.35,0.4,0.35c3.32,0,6.63,0,9.95,0c0.28,0,0.56,0,0.84,0
			c0.16,0,0.2,0.05,0.21,0.2c0.01,0.12,0,0.24,0,0.36C56.84,62.5,56.84,68.12,56.84,73.74z"/>
	</g>
	<g id="XMLID_6_">
		<path id="XMLID_29_" class="st0" d="M31.15,68.42c0.3,0.31,0.6,0.61,0.89,0.92c0.68,0.71,1.35,1.43,2.03,2.14
			c0.6,0.63,1.2,1.27,1.8,1.91c0.71,0.74,1.42,1.49,2.12,2.23c0.59,0.62,1.17,1.25,1.76,1.88c0.83,0.87,1.67,1.74,2.5,2.62
			c0.61,0.64,1.21,1.29,1.82,1.94c0.79,0.84,1.59,1.67,2.38,2.5c0.61,0.64,1.21,1.29,1.82,1.94c0.8,0.84,1.61,1.69,2.41,2.53
			c0.58,0.61,1.15,1.23,1.73,1.85c0.83,0.87,1.67,1.74,2.5,2.62c0.58,0.61,1.15,1.24,1.74,1.85c0.14,0.15,0.21,0.3,0.21,0.5
			c-0.01,2.34,0,4.67,0,7.01c0,0.04,0,0.08,0,0.12c-0.01,0.15-0.04,0.17-0.22,0.18c-0.12,0-0.23,0-0.35,0c-3.43,0-6.86,0-10.3,0
			c-0.6,0-0.53-0.06-0.53,0.5c0,4.34,0,8.69,0,13.03c0,0.6,0.07,0.53-0.58,0.53c-0.63,0-1.26,0-1.89,0c-0.09,0-0.18,0-0.26,0
			c-0.23-0.01-0.26-0.03-0.26-0.22c0-0.12,0-0.24,0-0.36c0-4.32,0-8.63,0-12.95c0-0.61,0.09-0.53-0.58-0.53c-3.43,0-6.86,0-10.3,0
			c-0.58,0-0.49,0.05-0.49-0.44c0-11.28,0-22.55,0-33.83c0-0.14,0-0.29,0-0.43C31.09,68.44,31.12,68.43,31.15,68.42z"/>
	</g>
	<g id="XMLID_5_">
		<path id="XMLID_27_" class="st0" d="M62.14,101.15c0.83,0.88,1.59,1.69,2.35,2.49c0.77,0.81,1.55,1.63,2.32,2.44
			c0.59,0.62,1.18,1.25,1.77,1.88c0.82,0.87,1.64,1.73,2.46,2.59c0.62,0.65,1.24,1.31,1.85,1.97c0.62,0.66,1.23,1.31,1.85,1.97
			c0.04,0.04,0.08,0.08,0.12,0.11c0.06,0.05,0.14,0.05,0.2,0c0.1-0.08,0.2-0.16,0.28-0.25c0.55-0.58,1.1-1.17,1.65-1.75
			c0.84-0.88,1.68-1.76,2.52-2.64c0.6-0.63,1.19-1.27,1.79-1.91c0.8-0.84,1.6-1.68,2.4-2.53c0.61-0.64,1.21-1.29,1.82-1.93
			c0.72-0.77,1.44-1.53,2.16-2.3c0.03-0.03,0.06-0.05,0.11-0.04c0.06,0.01,0.06,0.06,0.06,0.09c0.01,0.15,0.01,0.29,0.01,0.44
			c0,6.52,0,13.05,0,19.57c0,0.61,0.09,0.54-0.57,0.54c-3.4,0-6.81,0-10.21,0c-0.67,0-0.58-0.01-0.58,0.55c0,9.01,0,18.01,0,27.02
			c0,0.15,0,0.29-0.01,0.44c0,0.06-0.05,0.09-0.11,0.1c-0.06,0-0.12,0.01-0.18,0.01c-0.79,0-1.58,0-2.38,0c-0.04,0-0.09,0-0.13,0
			c-0.15-0.01-0.19-0.04-0.19-0.16c-0.01-0.13,0-0.27,0-0.4c0-5.95,0-11.9,0-17.85c0-3.07,0-6.14,0-9.21c0-0.55,0.05-0.49-0.54-0.49
			c-3.43,0-6.87,0-10.3,0c-0.59,0-0.53,0.05-0.53-0.46c0-6.6,0-13.2,0-19.81C62.13,101.49,62.14,101.36,62.14,101.15z"/>
	</g>
	<g id="XMLID_4_">
		<path id="XMLID_25_" class="st0" d="M67.78,93.79c1.73,0,3.46,0,5.19,0c0.58,0,0.53,0,0.53-0.48c0-1.23,0-2.47,0-3.7
			c0-0.11,0-0.21,0-0.32c0.01-0.16,0.03-0.18,0.21-0.18c0.87,0,1.73,0,2.6,0c0.17,0,0.2,0.02,0.2,0.19c0,0.33,0,0.66,0,1
			c0,1.01,0,2.02,0,3.03c0,0.11,0,0.21,0.01,0.32c0,0.08,0.05,0.13,0.14,0.13c0.15,0.01,0.29,0.01,0.44,0.01c3.39,0,6.77,0,10.16,0
			c0.72,0,0.62-0.08,0.63,0.57c0,0.7,0,1.41,0,2.11c0,0.17-0.05,0.29-0.18,0.43c-1.05,1.1-2.1,2.21-3.14,3.31
			c-1.21,1.28-2.41,2.56-3.61,3.84c-0.91,0.97-1.84,1.92-2.75,2.89c-0.97,1.02-1.94,2.05-2.91,3.08c-0.06,0.06-0.11,0.12-0.17,0.18
			c-0.08,0.08-0.14,0.08-0.22-0.01c-0.26-0.27-0.53-0.53-0.78-0.81c-0.6-0.63-1.2-1.27-1.79-1.91c-0.88-0.94-1.77-1.87-2.66-2.81
			c-0.53-0.56-1.07-1.12-1.61-1.69c-0.87-0.92-1.73-1.84-2.6-2.75c-0.56-0.59-1.13-1.18-1.69-1.78c-0.49-0.51-0.96-1.03-1.46-1.54
			c-0.11-0.12-0.17-0.23-0.17-0.39c0.01-0.81,0-1.62,0-2.43c0-0.05,0-0.11,0.01-0.16c0.01-0.08,0.06-0.12,0.14-0.12
			c0.13-0.01,0.26-0.01,0.4-0.01C64.37,93.79,66.08,93.79,67.78,93.79z"/>
	</g>
</g>
</svg>
