<?xml version="1.0" encoding="utf-8"?>
<!-- Generator: Adobe Illustrator 19.0.0, SVG Export Plug-In . SVG Version: 6.00 Build 0)  -->
<svg version="1.1" id="Camada_1" xmlns="http://www.w3.org/2000/svg" xmlns:xlink="http://www.w3.org/1999/xlink" x="0px" y="0px"
	 viewBox="169 297 1000 200" style="enable-background:new 169 297 1000 200;" xml:space="preserve">
<style type="text/css">
	.st0{display:none;}
	.st1{display:inline;fill:#0F171D;}
	.st2{fill:#E5B321;}
	.st3{enable-background:new    ;}
	.st4{display:inline;}
	.st5{display:inline;fill:#E5B321;}
	.st6{fill:#D6B82E;}
	.st7{display:none;fill:#E5B321;}
</style>
<g id="Camada_3" class="st0">
	<rect id="XMLID_130_" x="169" y="297" class="st1" width="950" height="200"/>
</g>
<g id="Camada_1_1_">
	<g id="XMLID_3_">
		<g id="XMLID_13_">
			<path id="XMLID_83_" class="st2" d="M376.9,421.9c-0.1,0-0.1,0-0.2,0c-0.1,0-0.2,0-0.2,0c-0.4,0-0.9,0-1.3,0h-1.6
				c-0.2,0-0.4,0-0.5,0c-0.2,0-0.2-0.1-0.2-0.1c0-0.2,0-0.3,0-0.5V418c0-2.6,0-5.2,0-7.8l0-0.3c0-0.2,0-0.4-0.1-0.4
				c-0.1-0.1-0.2-0.1-0.4-0.1l-0.5,0h-15.8c-0.1,0-0.3,0-0.3,0c0,0,0-0.1,0-0.2c0-0.1,0-0.1,0-0.2v-6.9c0-7,0-13.9,0-20.9
				c0-0.4,0.1-0.7,0.4-1c0.7-0.6,1.4-1.3,2.1-1.9l1-0.9l0.9-0.8c0.4-0.4,0.9-0.8,1.3-1.2c0.4-0.4,0.9-0.8,1.3-1.3l0.8-0.8
				c0.1-0.1,0.1-0.1,0.2-0.2c0.1-0.1,0.1-0.1,0.2-0.2l0.6-0.6c0.5-0.5,1.1-1,1.6-1.5c0.4-0.4,0.9-0.9,1.4-1.3
				c0.3-0.2,0.5-0.5,0.8-0.7c0.4-0.4,0.8-0.8,1.2-1.1c0.4-0.4,0.8-0.7,1.1-1.1c0.3-0.2,0.5-0.5,0.8-0.7c0.5-0.5,1.1-1,1.6-1.5
				c0.2-0.2,0.5-0.5,0.8-0.7c0.2-0.1,0.3-0.3,0.5-0.4c0.1-0.1,0.3-0.3,0.4-0.4c0.1-0.1,0.2-0.2,0.3-0.3l1-0.9
				c0.4-0.4,0.8-0.8,1.2-1.1c0.4-0.4,2.2-2,2.6-2.5c0.3-0.3,0.7-0.6,1-0.9c0.4-0.4,0.8-0.7,1.2-1.1c0.5-0.4,0.9-0.9,1.3-1.3l0.8-0.8
				c0.1-0.1,0.1-0.1,0.2-0.2c0.1-0.1,0.1-0.1,0.2-0.2l0.7-0.6c0.6-0.5,1.1-1,1.7-1.6c0.4-0.4,0.9-0.8,1.3-1.3
				c0.3-0.2,0.5-0.5,0.8-0.7c0.8-0.7,1.6-1.5,2.4-2.2c0.5-0.5,1.1-1,1.6-1.5l0.8-0.7c0.2-0.2,0.4-0.3,0.6-0.5l0,0.2v0.3
				c0,0,0,54.8,0,63.7c0,0.1,0,0.1,0,0.2c0,0.2,0,0.3-0.1,0.4c-0.1,0.1-0.2,0.1-0.3,0.1c-0.1,0-0.2,0-0.3,0c-0.1,0-0.2,0-0.3,0
				c-2.9,0-15.3,0-15.3,0l-0.5,0c-0.2,0-0.3,0-0.4,0.1c-0.1,0.1-0.1,0.2-0.1,0.5v0.2l0,11.1c0,0.1,0,0.1,0,0.2c0,0.2,0,0.3-0.1,0.4
				C377.1,421.9,377.1,421.9,376.9,421.9z"/>
			<path id="XMLID_80_" class="st2" d="M394.3,344.7L394.3,344.7v0.3v28.2v3.6v3.2c0,9.5,0,19.1,0,28.6c0,0.1,0,0.1,0,0.2
				c0,0.2,0,0.3,0,0.3c-0.1,0-0.1,0.1-0.3,0.1c-0.1,0-0.2,0-0.2,0c-0.1,0-0.2,0-0.3,0c-2.9,0-5.8,0-8.6,0c-2.2,0-4.4,0-6.7,0
				c-0.1,0-0.2,0-0.3,0h-0.2c-0.2,0-0.4,0-0.5,0.1c-0.1,0.1-0.1,0.3-0.1,0.5c0,0.1,0,0.1,0,0.2c0,1.9,0,3.8,0,5.7c0,1.8,0,3.6,0,5.4
				c0,0.1,0,0.1,0,0.2c0,0.2,0,0.2,0,0.3c0,0-0.1,0-0.2,0c-0.1,0-0.1,0-0.2,0c-0.1,0-0.2,0-0.3,0l0,0c-0.4,0-0.9,0-1.3,0h-0.9h-0.7
				c-0.2,0-0.3,0-0.5,0c-0.1,0-0.1,0-0.1,0l0,0v0c0-0.1,0-0.3,0-0.4v-3.2c0-2.6,0-5.3,0-8c0-0.1,0-0.2,0-0.3c0-0.2,0-0.4-0.1-0.5
				c-0.1-0.1-0.3-0.1-0.4-0.1h-0.2c-0.1,0-0.2,0-0.3,0c-2.4,0-4.9,0-7.3,0h-2.4h-2.4h-3.3h-0.2h-0.1c-0.1,0-0.2,0-0.2,0
				c0,0,0-0.1,0-0.2c0-0.1,0-0.2,0-0.2v-6.7c0-7,0-14,0-21c0-0.4,0.1-0.6,0.4-0.9c0.7-0.6,1.4-1.3,2.1-1.9c0.3-0.3,0.6-0.6,1-0.9
				c0.3-0.3,0.6-0.5,0.9-0.8c0.4-0.4,0.9-0.8,1.3-1.2c0.4-0.4,0.9-0.8,1.3-1.3c0.3-0.3,0.6-0.5,0.8-0.8c0.1-0.1,0.1-0.1,0.2-0.2
				c0.1-0.1,0.1-0.1,0.2-0.2c0.2-0.2,0.4-0.4,0.6-0.6c0.5-0.5,1.1-1,1.6-1.5c0.4-0.4,0.9-0.9,1.4-1.3c0.3-0.2,0.5-0.5,0.8-0.7
				c0.4-0.4,0.8-0.8,1.2-1.1c0.4-0.4,0.8-0.7,1.1-1.1c0.3-0.2,0.5-0.5,0.8-0.7c0.5-0.5,1.1-1,1.6-1.5c0.2-0.2,0.5-0.5,0.8-0.7
				c0.2-0.1,0.3-0.3,0.5-0.4c0.1-0.1,0.3-0.3,0.4-0.4c0.1-0.1,0.2-0.2,0.3-0.3c0.3-0.3,0.7-0.6,1-0.9c0.4-0.4,0.8-0.8,1.2-1.1
				c0.4-0.4,0.8-0.8,1.3-1.2c0.4-0.4,0.9-0.8,1.3-1.3c0.3-0.3,0.7-0.6,1-0.9c0.4-0.4,0.8-0.7,1.2-1.1c0.4-0.4,0.9-0.9,1.3-1.3
				c0.3-0.3,0.5-0.5,0.8-0.8c0.1-0.1,0.1-0.1,0.2-0.2c0.1-0.1,0.1-0.1,0.2-0.2c0.2-0.2,0.5-0.4,0.7-0.6c0.6-0.5,1.1-1,1.7-1.6
				c0.4-0.4,0.9-0.9,1.3-1.3c0.3-0.2,0.5-0.5,0.8-0.7c0.9-0.9,1.7-1.6,2.4-2.2c0.5-0.5,1.1-1,1.6-1.5c0.3-0.2,0.5-0.5,0.8-0.7
				C394,344.9,394.1,344.8,394.3,344.7 M394.4,344.4L394.4,344.4c0,0-0.1,0-0.1,0c-0.2,0.2-0.4,0.3-0.6,0.5
				c-0.8,0.7-1.6,1.5-2.3,2.2c-0.8,0.7-1.6,1.5-2.4,2.2c-0.7,0.7-1.4,1.3-2.1,2c-0.8,0.8-1.6,1.5-2.4,2.2c-0.1,0.1-0.2,0.2-0.4,0.3
				c-0.7,0.7-1.4,1.4-2.2,2.1c-0.7,0.7-1.4,1.3-2.2,2c-0.9,0.8-1.7,1.6-2.6,2.5c-0.7,0.7-1.5,1.4-2.2,2c-0.3,0.2-0.5,0.5-0.8,0.7
				c-0.4,0.4-0.9,0.7-1.2,1.1c-0.8,0.8-1.6,1.5-2.4,2.3c-0.8,0.7-1.6,1.5-2.4,2.2c-0.7,0.7-1.4,1.3-2.1,2c-0.7,0.7-1.5,1.4-2.3,2.1
				c-0.1,0.1-0.3,0.2-0.4,0.3c-0.7,0.7-1.4,1.4-2.2,2.1c-0.7,0.7-1.4,1.3-2.2,2c-1,0.9-2,1.9-3.1,2.8c-0.3,0.3-0.5,0.6-0.5,1
				c0,9.2,0,18.5,0,27.7c0,0.5-0.1,0.6,0.4,0.6c0.1,0,0.2,0,0.3,0h0c1.1,0,2.2,0,3.3,0c1.6,0,3.2,0,4.8,0c2.4,0,4.9,0,7.3,0h0
				c0.2,0,0.4,0,0.5,0c0.4,0,0.4,0.1,0.4,0.7c0,3.7,0,7.4,0,11.1c0,0.2,0,0.3,0,0.5c0,0.1,0.1,0.2,0.3,0.2c0.2,0,0.4,0,0.5,0
				c0.5,0,1.1,0,1.6,0c0.4,0,0.9,0,1.3,0h0c0.1,0,0.3,0,0.4,0c0.1,0,0.2,0,0.3-0.1c0.2-0.2,0.1-0.4,0.1-0.6c0-3.7,0-7.4,0-11.1
				c0-0.6-0.1-0.7,0.4-0.7c0.1,0,0.3,0,0.5,0h0c5.1,0,10.2,0,15.3,0l0,0c0.2,0,0.3,0,0.5,0c0.1,0,0.3,0,0.4-0.1
				c0.2-0.2,0.1-0.4,0.1-0.7c0-10.6,0-21.2,0-31.8c0-10.6,0-21.3,0-31.9C394.4,344.8,394.4,344.7,394.4,344.4
				C394.4,344.4,394.4,344.4,394.4,344.4L394.4,344.4z"/>
		</g>
		<g id="XMLID_12_">
			<path id="XMLID_78_" class="st2" d="M186.4,421.9c-0.2,0-0.2,0-0.2-0.1c0-0.1,0-0.2,0-0.4v-11.5c0-0.2,0-0.4-0.1-0.4
				c-0.1-0.1-0.2-0.1-0.4-0.1h-16.3c-0.1,0-0.2,0-0.3,0c0,0,0-0.2,0-0.3v-35c0-9.7,0-19.3,0-29c0-0.1,0-0.1,0-0.2
				c0-0.1,0-0.2,0.1-0.3c0.1,0.1,0.2,0.1,0.3,0.2c0,0,0.1,0.1,0.1,0.1l2.9,2.7c0.5,0.5,2.8,2.6,2.8,2.6l3.6,3.3l2.8,2.6l3.6,3.3
				l2.7,2.6l3.6,3.4l2.7,2.5l3.7,3.4c0,0,2.2,2.1,2.7,2.5l3.7,3.4c0.7,0.6,2.8,2.6,2.8,2.6l0.1,0.1c0,0.1,0.1,0.1,0.2,0.1
				c0.3,0.2,0.4,0.5,0.4,0.9c0,6.9,0,13.8,0,20.7v7.3c0,0.1,0,0.3,0,0.3c0,0-0.2,0-0.3,0h-16.3c-0.2,0-0.3,0-0.4,0.1
				c-0.1,0.1-0.1,0.2-0.1,0.4v0.2c0,2.7,0,11.1,0,11.1v0.4c0,0.3,0,0.3-0.4,0.3c-0.8,0-1.6,0-2.3,0L186.4,421.9z"/>
			<path id="XMLID_75_" class="st2" d="M169.2,344.7c0.1,0.1,0.1,0.1,0.2,0.2c0,0,0.1,0.1,0.1,0.1c0.5,0.4,1,0.9,1.4,1.3
				c0.5,0.5,1,0.9,1.5,1.4c0.5,0.5,1,0.9,1.5,1.4c0.4,0.4,0.9,0.8,1.3,1.2l1.8,1.7l1.8,1.7c0.5,0.4,0.9,0.9,1.4,1.3
				c0.5,0.4,0.9,0.9,1.4,1.3c0.6,0.5,1.2,1.1,1.7,1.6c0.6,0.6,1.2,1.1,1.8,1.7c0.4,0.4,0.9,0.8,1.3,1.3c0.5,0.4,0.9,0.9,1.4,1.3
				c0.6,0.6,1.2,1.1,1.8,1.7c0.6,0.6,1.2,1.1,1.8,1.7c0.4,0.4,0.9,0.8,1.3,1.3c0.5,0.4,0.9,0.9,1.4,1.3c0.6,0.6,1.2,1.1,1.8,1.7
				c0.6,0.6,1.2,1.1,1.8,1.7c0.4,0.4,0.9,0.8,1.3,1.3c0.5,0.4,0.9,0.9,1.4,1.3c0.6,0.6,1.2,1.1,1.8,1.7c0.6,0.6,1.2,1.1,1.8,1.7
				c0.7,0.6,1.3,1.3,2,1.9l0.8,0.7c0,0,0,0,0.1,0.1c0.1,0.1,0.1,0.1,0.2,0.2c0.3,0.2,0.4,0.4,0.4,0.8c0,6.8,0,13.6,0,20.4v7.4v0.2
				c0,0.1,0,0.2,0,0.2c0,0-0.1,0-0.2,0h-0.1H207h-5.6h-1.2h-1.2c-2.5,0-5,0-7.4,0h-0.3H191c-0.2,0-0.3,0-0.4,0.1
				c-0.1,0.1-0.1,0.3-0.1,0.5c0,0.1,0,0.1,0,0.2c0,2.7,0,5.4,0,8.2v2.9v0.1c0,0.1,0,0.2,0,0.3c0,0.1,0,0.2,0,0.2c0,0-0.2,0-0.3,0
				c-0.7,0-1.5,0-2.2,0h-1.5c-0.1,0-0.1,0-0.1,0c0,0,0,0,0,0c0-0.1,0-0.2,0-0.3v-0.1v-3.2c0-2.7,0-5.3,0-8V410c0-0.2,0-0.4-0.1-0.5
				c-0.1-0.1-0.3-0.1-0.5-0.1h-0.1h-0.2h-7h-0.8h-7.8h-0.2h-0.1c-0.1,0-0.1,0-0.1,0c0,0-0.1,0-0.1,0c0,0,0-0.2,0-0.3v-0.2v-26.5
				v-5.5V374c0-9.6,0-19.3,0-28.9c0-0.1,0-0.1,0-0.2C169.2,344.8,169.2,344.7,169.2,344.7 M169.1,344.5c-0.2,0.2-0.1,0.4-0.1,0.6
				c0,10.6,0,21.2,0,31.8c0,10.7,0,21.3,0,32c0,0.5-0.1,0.6,0.4,0.6c0.1,0,0.2,0,0.4,0c0,0,0,0,0,0c2.6,0,5.2,0,7.8,0
				c0.3,0,0.5,0,0.8,0c2.3,0,4.7,0,7,0c0,0,0,0,0,0c0.1,0,0.3,0,0.4,0c0.5,0,0.4,0.1,0.4,0.6c0,3.7,0,7.4,0,11.2c0,0.2,0,0.3,0,0.5
				c0,0.2,0.1,0.2,0.3,0.2c0.5,0,1,0,1.5,0c0.7,0,1.5,0,2.2,0c0.5,0,0.5,0,0.5-0.4c0-0.1,0-0.2,0-0.4c0-3.7,0-7.4,0-11.1
				c0-0.6-0.1-0.6,0.4-0.6c0.1,0,0.3,0,0.4,0h0c2.5,0,5,0,7.4,0c0.8,0,1.6,0,2.5,0c1.9,0,3.8,0,5.6,0c0,0,0,0,0,0c0.1,0,0.3,0,0.3,0
				c0.4,0,0.4-0.1,0.4-0.6c0-9.2,0-18.5,0-27.7c0-0.4-0.1-0.7-0.4-0.9c-0.1-0.1-0.1-0.1-0.2-0.2c-0.9-0.9-1.9-1.8-2.8-2.6
				c-1.2-1.1-2.4-2.3-3.7-3.4c-0.9-0.8-1.8-1.7-2.7-2.5c-1.2-1.1-2.4-2.3-3.7-3.4c-0.9-0.8-1.8-1.7-2.7-2.5
				c-1.2-1.1-2.4-2.3-3.6-3.4c-0.9-0.9-1.8-1.7-2.7-2.6c-1.2-1.1-2.4-2.2-3.6-3.3c-0.9-0.9-1.9-1.7-2.8-2.6
				c-1.2-1.1-2.4-2.2-3.6-3.3c-0.9-0.9-1.9-1.7-2.8-2.6c-1-0.9-1.9-1.8-2.9-2.7C169.5,344.7,169.4,344.5,169.1,344.5L169.1,344.5z"
				/>
		</g>
		<g id="XMLID_11_">
			<path id="XMLID_73_" class="st2" d="M207.7,374.5c-0.2-0.1-0.3-0.3-0.5-0.4c-0.1-0.1-0.1-0.1-0.2-0.2c-1.4-1.3-2.8-2.6-4.2-3.9
				l-4.3-4c0,0-4.3-4-5.3-5l-5.8-5.5c0,0-4.4-4.1-5.3-4.9c-0.9-0.8-4.4-4.1-5.2-4.9c-0.9-0.9-1.9-1.8-2.8-2.7l-4.7-4.4
				c0,0-0.1-0.1-0.1-0.1c-0.1-0.1-0.1-0.1-0.1-0.4c0-0.1,0-0.2,0-0.2l0,0v-27.6c0-0.2,0-0.4,0-0.5c0,0,0-0.1,0.2-0.1
				c0.2,0,0.4,0,0.6,0h15.8c0.2,0,0.4,0,0.5-0.1c0.1-0.1,0.1-0.2,0.1-0.5v-11.3c0-0.2,0-0.3,0-0.5c0,0,0-0.1,0.2-0.1h0.3h3.4
				c0.1,0,0.2,0,0.3,0c0.1,0,0.1,0.1,0.1,0.1c0,0.2,0,0.3,0,0.5c0,0,0,8.5,0,11.1v0.2c0,0.3,0,0.4,0.1,0.5c0.1,0.1,0.2,0.1,0.4,0.1
				l0.5,0h15.7c0.1,0,0.3,0,0.3,0c0,0,0,0.1,0,0.3v0.2c0,21.3,0,42.5,0,63.8c0,0.1,0,0.3,0,0.4L207.7,374.5z"/>
			<path id="XMLID_70_" class="st2" d="M188.6,297.2h1.6c0.1,0,0.2,0,0.3,0c0,0,0,0,0,0l0,0c0,0.2,0,0.3,0,0.5v3.5
				c0,2.6,0,5.1,0,7.7c0,0.1,0,0.2,0,0.2c0,0.3,0,0.4,0.1,0.6c0.1,0.1,0.3,0.1,0.5,0.1h0.2c0.1,0,0.2,0,0.3,0c2.3,0,4.6,0,6.9,0h1.7
				h1.7h5.1h0.2h0.1c0.1,0,0.2,0,0.2,0c0,0,0,0.1,0,0.2c0,0.1,0,0.1,0,0.2c0,21.3,0,42.5,0,63.8c0,0.1,0,0.2,0,0.4
				c-0.1-0.1-0.2-0.2-0.3-0.3c-0.1-0.1-0.1-0.1-0.2-0.2c-1.4-1.3-2.8-2.6-4.2-3.9c-0.7-0.7-1.5-1.4-2.2-2c-0.7-0.7-1.4-1.3-2.1-2
				c-0.8-0.7-1.6-1.5-2.4-2.2c-1-0.9-1.9-1.8-2.9-2.7c-1-0.9-2-1.9-3-2.8c-1-0.9-1.9-1.8-2.9-2.7c-0.8-0.8-1.7-1.6-2.5-2.4
				c-0.9-0.9-1.8-1.7-2.7-2.6c-0.9-0.8-1.7-1.6-2.6-2.4c-0.9-0.8-1.8-1.7-2.6-2.5c-0.9-0.9-1.8-1.7-2.8-2.6l-1.4-1.3l-1.1-1
				c-0.8-0.7-1.5-1.4-2.3-2.1c0,0-0.1-0.1-0.1-0.1c0,0-0.1,0-0.1-0.3c0-0.1,0-0.1,0-0.2l0,0v-0.2v-0.8v-26.7c0-0.2,0-0.4,0-0.5
				c0,0,0,0,0.1,0c0.2,0,0.4,0,0.6,0h2.1h2.7h2.7h8h0.2h0.2c0.3,0,0.4,0,0.5-0.1c0.1-0.1,0.1-0.3,0.1-0.6v-0.1v-5.8v-5.4v-0.1
				c0-0.1,0-0.3,0-0.4c0,0,0,0,0.1,0h0.1c0.1,0,0.2,0,0.3,0H188.6 M188.6,297c-0.6,0-1.2,0-1.8,0c-0.1,0-0.2,0-0.3,0
				c-0.2,0-0.2,0.1-0.3,0.2c0,0.2,0,0.3,0,0.5c0,3.7,0,7.4,0,11.2c0,0.6,0.1,0.7-0.5,0.7c-0.1,0-0.2,0-0.4,0c0,0,0,0,0,0
				c-2.7,0-5.3,0-8,0c-1.8,0-3.6,0-5.4,0c-0.7,0-1.4,0-2.1,0c-0.2,0-0.4,0-0.6,0c-0.2,0-0.2,0.1-0.3,0.2c0,0.2,0,0.4,0,0.5
				c0,9.2,0,18.3,0,27.5c0,0,0,0,0,0v0c0,0,0,0,0,0.3c0,0.5,0.1,0.4,0.2,0.5c1.1,1,2.2,2.1,3.4,3.1c1.4,1.3,2.8,2.6,4.2,3.9
				c1.7,1.6,3.5,3.3,5.2,4.9c1.7,1.6,3.5,3.3,5.3,4.9c1.9,1.8,3.9,3.7,5.8,5.5c1.8,1.7,3.5,3.3,5.3,5c1.4,1.3,2.9,2.7,4.3,4
				c1.4,1.3,2.8,2.6,4.2,3.9c0.2,0.2,0.4,0.5,0.8,0.7c0-0.3,0-0.5,0-0.7c0-21.3,0-42.5,0-63.8c0-0.6,0.1-0.6-0.4-0.6
				c-0.1,0-0.2,0-0.4,0h0c-1.7,0-3.4,0-5,0c-1.1,0-2.3,0-3.5,0c-2.3,0-4.6,0-6.9,0h0c-0.2,0-0.4,0-0.5,0c-0.5,0-0.4-0.1-0.4-0.8
				c0-3.7,0-7.4,0-11.1c0-0.2,0-0.3,0-0.5c0-0.1-0.1-0.2-0.2-0.2c-0.1,0-0.2,0-0.3,0C189.6,297,189.1,297,188.6,297L188.6,297z"/>
		</g>
		<g id="XMLID_10_">
			<path id="XMLID_68_" class="st2" d="M355.8,374.5C355.8,374.4,355.8,374.4,355.8,374.5c0-0.3,0-9.7,0-9.7c0-18.1,0-36.3,0-54.4
				c0-0.1,0-0.2,0-0.3c0-0.2,0-0.3,0-0.3c0,0,0.2,0,0.3,0l0.5,0h15.8c0.2,0,0.4,0,0.4-0.1c0.1-0.1,0.1-0.2,0.1-0.5v-11.6
				c0-0.2,0-0.3,0-0.3c0,0,0.2,0,0.3,0h3.4c0.2,0,0.3,0,0.5,0c0,0,0.1,0,0.1,0.1c0,0.2,0,0.3,0,0.5V309c0,0.3,0,0.4,0.1,0.5
				c0.1,0.1,0.2,0.1,0.4,0.1l0.5,0h15.6c0.5,0,0.5,0,0.5,0.4c0,0.4,0,27.7,0,27.7c0,0.6,0,0.6-0.5,1.1c-0.8,0.7-4,3.7-4,3.7
				l-25.4,23.8l-8.3,7.8C356,374.3,356,374.3,355.8,374.5L355.8,374.5z"/>
			<path id="XMLID_65_" class="st2" d="M374.9,297.2h1.4h0.4c0.1,0,0.3,0,0.5,0c0,0.2,0,0.3,0,0.5v4.2c0,2.3,0,4.6,0,6.9v0.2
				c0,0.3,0,0.5,0.1,0.6c0.1,0.1,0.3,0.1,0.5,0.1h0.2c0.1,0,0.2,0,0.3,0c2.4,0,4.8,0,7.3,0h4h4h0.1h0.1h0.1c0.2,0,0.4,0,0.4,0
				c0,0,0,0.2,0,0.3c0,0.4,0,0.7,0,1.1v0.5v5.2v21c0,0.5,0,0.5-0.5,1c-0.8,0.7-1.5,1.4-2.3,2.1c-0.6,0.5-1.1,1.1-1.7,1.6
				c-0.8,0.8-1.6,1.5-2.5,2.3l-1.4,1.3l-1.2,1.2l-1.3,1.2l-1.9,1.7l-2,1.9l-1.2,1.1l-1.3,1.2l-1.9,1.8l-2,1.8l-1.2,1.1l-1.3,1.2
				l-1.9,1.8l-2,1.8l-1.2,1.2l-1.3,1.2l-2.9,2.7l-1,0.9l-0.4,0.4l-2,1.9l-0.7,0.7c-0.4,0.4-0.9,0.8-1.3,1.2
				c-0.1,0.1-0.1,0.1-0.2,0.2c0-0.1,0-0.3,0-0.4v-0.1v-9.4c0-18,0-36.1,0-54.1c0-0.1,0-0.2,0-0.3c0-0.1,0-0.2,0-0.3c0,0,0.1,0,0.2,0
				h0.2c0.1,0,0.2,0,0.3,0l0,0c2.3,0,4.7,0,7,0h2.2h2.2h4h0.2h0.2c0.2,0,0.4,0,0.5-0.1c0.1-0.1,0.1-0.3,0.1-0.5v-0.2
				c0-2.1,0-4.2,0-6.2v-5v-0.2c0-0.1,0-0.3,0-0.3c0,0,0.2,0,0.3,0h0.1h0.2h0H374.9 M374.9,297c-0.4,0-0.8,0-1.2,0c0,0,0,0,0,0
				c-0.1,0-0.2,0-0.3,0c-0.5,0-0.4,0-0.4,0.6c0,3.7,0,7.5,0,11.2c0,0.6,0.1,0.7-0.4,0.7c-0.1,0-0.2,0-0.4,0h0c-1.3,0-2.6,0-3.9,0
				c-1.5,0-2.9,0-4.4,0c-2.3,0-4.7,0-7,0c0,0,0,0,0,0c-0.2,0-0.4,0-0.5,0c-0.5,0-0.4,0.1-0.4,0.8c0,21.2,0,42.3,0,63.5
				c0,0.2,0,0.4,0,0.6c0,0.1,0,0.1,0.1,0.2c0.1-0.1,0.3-0.2,0.4-0.3c0.7-0.6,1.3-1.3,2-1.9c0.8-0.8,1.6-1.5,2.4-2.3
				c1.3-1.2,2.6-2.4,3.9-3.6c0.8-0.8,1.7-1.6,2.5-2.3c1.3-1.2,2.6-2.4,3.9-3.6c0.8-0.8,1.7-1.6,2.5-2.3c1.3-1.2,2.6-2.4,3.9-3.6
				c0.8-0.8,1.7-1.6,2.5-2.3c1.3-1.2,2.6-2.4,3.9-3.6c0.8-0.8,1.7-1.6,2.5-2.3c1.3-1.2,2.6-2.4,3.9-3.6c1.3-1.2,2.7-2.5,4-3.7
				c0.5-0.5,0.5-0.5,0.5-1.1c0-8.7,0-17.5,0-26.2c0-0.5,0-1,0-1.5c0-0.5,0-0.5-0.6-0.5c-0.1,0-0.1,0-0.1,0c-0.1,0-0.2,0-0.3,0
				c-2.7,0-5.3,0-8,0c-2.4,0-4.8,0-7.3,0h0c-0.2,0-0.4,0-0.5,0c-0.5,0-0.4-0.1-0.4-0.8c0-3.7,0-7.4,0-11.1c0-0.2,0-0.4,0-0.5
				c0-0.1-0.1-0.1-0.2-0.1c-0.1,0-0.3,0-0.5,0C376.1,297,375.5,297,374.9,297L374.9,297z"/>
		</g>
		<g id="XMLID_9_">
			<path id="XMLID_63_" class="st2" d="M326.7,453.1c-0.1,0-0.2,0-0.3,0c-0.2,0-0.2-0.1-0.2-0.1c0-0.1,0-0.2,0-0.4v-17.5
				c0-0.1,0-0.2,0-0.4c0-0.3-0.1-0.4-0.5-0.4h-16.3c-0.1,0-0.2,0-0.3,0c0,0,0-0.2,0-0.3v-3c0-2.1,0-4.1,0-6.2c0-0.4,0.1-0.6,0.4-0.8
				c0.1-0.1,0.3-0.2,0.4-0.4c0.1-0.1,0.1-0.1,0.2-0.2l0.7-0.7c0.5-0.4,1-0.9,1.4-1.3c0.4-0.4,0.9-0.8,1.3-1.3l0.8-0.8
				c0.1-0.1,0.1-0.1,0.2-0.2c0.1-0.1,0.1-0.1,0.2-0.2l0.6-0.6c0.6-0.5,1.1-1,1.6-1.5c0.3-0.3,0.7-0.7,1-1c0.4-0.3,0.7-0.7,1.1-1
				c0.6-0.6,1.2-1.1,1.7-1.6c0.3-0.3,0.6-0.6,1-0.9c0.5-0.5,1-1,1.6-1.5l1.1-1.1l3.7-3.5c0.4-0.4,2.2-2.1,2.7-2.5l3.7-3.4
				c0.5-0.5,2.7-2.5,2.7-2.5c0.2-0.2,0.4-0.4,0.6-0.6c0.4-0.4,0.8-0.7,1.2-1.1c0.3-0.3,0.6-0.6,0.9-0.9c0.4-0.4,0.9-0.8,1.3-1.3
				c0.1-0.1,0.2-0.2,0.3-0.2c0.1-0.1,0.1-0.1,0.2-0.2l0.5-0.5c0.6-0.5,1.1-1,1.7-1.5c0.3-0.3,0.7-0.7,1-1c0.4-0.4,0.8-0.7,1.1-1.1
				c0.4-0.3,0.8-0.7,1.1-1l0.4-0.3l0.1,0v45.5v0.2c0,0.2,0,0.3,0,0.3c0,0-0.2,0-0.3,0H347h-15.2c-0.1,0-0.2,0-0.3,0
				c-0.1,0-0.2,0-0.3,0c-0.2,0-0.3,0-0.4,0.1c-0.2,0.2-0.2,0.4-0.2,0.6c0,0.1,0,0.1,0,0.2c0,3.7,0,7.4,0,11.2v6.3c0,0.2,0,0.3,0,0.4
				s-0.2,0-0.4,0h-1.6L326.7,453.1z"/>
			<path id="XMLID_59_" class="st2" d="M347.6,388.5v0.2v7.5c0,12.5,0,25.1,0,37.6c0,0.1,0,0.2,0,0.2c0,0.1,0,0.2,0,0.2
				c0,0-0.1,0-0.2,0h-0.2h-0.3h-6.8c-2.8,0-5.6,0-8.4,0c-0.1,0-0.2,0-0.3,0c-0.1,0-0.2,0-0.3,0c-0.1,0-0.3,0-0.5,0.1
				c-0.3,0.2-0.2,0.5-0.2,0.7c0,0.1,0,0.1,0,0.2c0,3.7,0,7.3,0,11v6.2v0.2c0,0.1,0,0.3,0,0.3c0,0-0.2,0-0.3,0H330h-0.2h-0.1
				c-0.4,0-0.8,0-1.1,0h-1h-0.8h-0.1h-0.1c-0.1,0-0.2,0-0.3,0c-0.1,0-0.1,0-0.1,0l0,0c0,0,0,0,0,0c0-0.1,0-0.2,0-0.4v-0.1v-11.9
				v-5.4v-0.1c0-0.1,0-0.2,0-0.4c0-0.4-0.2-0.5-0.6-0.5c-0.1,0-0.1,0-0.2,0h-0.2h-0.2h-0.4h-3.6h-3.6h-7.8h-0.2h-0.1
				c-0.1,0-0.2,0-0.2,0c0,0,0-0.1,0-0.3v-0.2v-2.8c0-2.1,0-4.2,0-6.3c0-0.3,0.1-0.5,0.3-0.7c0.1-0.1,0.3-0.2,0.4-0.4
				c0.1-0.1,0.1-0.1,0.2-0.2l0.8-0.7c0.5-0.4,0.9-0.9,1.4-1.3c0.4-0.4,0.9-0.8,1.3-1.3c0.3-0.3,0.6-0.5,0.8-0.8
				c0.1-0.1,0.1-0.1,0.2-0.2c0.1-0.1,0.1-0.1,0.2-0.2c0.2-0.2,0.4-0.4,0.6-0.6c0.5-0.5,1.1-1,1.6-1.5c0.3-0.3,0.7-0.7,1-1
				c0.4-0.3,0.7-0.7,1.1-1c0.6-0.6,1.2-1.1,1.7-1.6c0.3-0.3,0.6-0.6,1-0.9c0.5-0.5,1-1,1.6-1.5c0.4-0.4,0.8-0.7,1.1-1.1
				c0.6-0.6,1.2-1.1,1.8-1.7c0.6-0.6,1.3-1.2,1.9-1.8c0.5-0.4,0.9-0.8,1.3-1.3c0.4-0.4,0.9-0.8,1.3-1.3c0.6-0.6,1.2-1.1,1.8-1.7
				c0.6-0.6,1.2-1.1,1.8-1.7c0.5-0.5,1-1,1.5-1.4c0.4-0.4,0.8-0.7,1.2-1.1c0.2-0.2,0.4-0.4,0.6-0.6c0.4-0.4,0.8-0.7,1.2-1.1
				c0.3-0.3,0.6-0.6,0.9-0.9c0.4-0.4,0.9-0.8,1.3-1.3c0.1-0.1,0.2-0.1,0.2-0.2c0.1-0.1,0.1-0.1,0.2-0.2l0.5-0.4
				c0.6-0.5,1.1-1,1.7-1.6c0.3-0.3,0.7-0.7,1-1c0.4-0.4,0.7-0.7,1.1-1.1c0.4-0.3,0.7-0.7,1.1-1L347.6,388.5 M347.7,388.2
				c-0.1,0-0.2,0.1-0.2,0.1c-0.5,0.4-1,0.9-1.5,1.3c-0.7,0.7-1.4,1.4-2.2,2.1c-0.7,0.7-1.4,1.3-2.2,2c-0.1,0.1-0.3,0.3-0.4,0.4
				c-0.7,0.8-1.5,1.4-2.2,2.1c-0.6,0.6-1.2,1.1-1.8,1.7c-0.9,0.8-1.8,1.7-2.7,2.5c-1.2,1.1-2.4,2.3-3.7,3.4
				c-0.9,0.8-1.8,1.7-2.7,2.5c-1.2,1.2-2.5,2.3-3.7,3.5c-0.9,0.8-1.8,1.7-2.7,2.5c-0.9,0.8-1.9,1.6-2.7,2.5c-0.7,0.7-1.4,1.3-2.1,2
				c-0.7,0.7-1.5,1.4-2.3,2.1c-0.1,0.1-0.3,0.2-0.4,0.3c-0.7,0.7-1.4,1.4-2.2,2.1c-0.7,0.7-1.4,1.3-2.2,2c-0.2,0.2-0.4,0.4-0.6,0.6
				c-0.3,0.2-0.4,0.5-0.4,0.9c0,3,0,6,0,9c0,0.5-0.1,0.6,0.4,0.6c0.1,0,0.2,0,0.3,0c0,0,0,0,0,0c2.6,0,5.2,0,7.8,0
				c2.4,0,4.8,0,7.1,0c0.1,0,0.3,0,0.4,0c0.1,0,0.2,0,0.3,0c0.1,0,0.1,0,0.2,0c0.4,0,0.4,0,0.4,0.3c0,0.2,0,0.3,0,0.5
				c0,5.8,0,11.5,0,17.3c0,0.2,0,0.3,0,0.5c0,0.2,0.1,0.2,0.3,0.2c0.1,0,0.2,0,0.3,0c0.1,0,0.1,0,0.2,0c0,0,0,0,0,0
				c0.6,0,1.2,0,1.8,0c0.4,0,0.8,0,1.1,0c0,0,0,0,0.1,0c0.1,0,0.2,0,0.3,0c0.6,0,0.5-0.1,0.5-0.7c0-5.7,0-11.5,0-17.2
				c0-0.3-0.2-0.6,0.1-0.8c0.1-0.1,0.2-0.1,0.4-0.1c0.2,0,0.4,0,0.6,0l0,0c5.1,0,10.1,0,15.2,0h0c0.2,0,0.3,0,0.4,0
				c0.4,0,0.4-0.1,0.4-0.6c0-15,0-30.1,0-45.1C347.7,388.5,347.7,388.4,347.7,388.2L347.7,388.2z"/>
		</g>
		<g id="XMLID_8_">
			<path id="XMLID_57_" class="st2" d="M309.1,418.2l0-0.5v-45.1c0-0.2,0-0.3,0-0.5c0,0,0-0.1,0.1-0.1c0.2,0,0.4,0,0.7,0h15.8
				c0.3,0,0.4,0,0.5-0.1c0.1-0.1,0.1-0.2,0.1-0.5v-0.3l0-17.3v-0.2c0-0.2,0-0.3,0-0.3c0,0,0.2,0,0.3,0h0.5c0.4,0,3,0,3,0h0
				c0.2,0,0.3,0,0.4,0c0.1,0,0.1,0,0.1,0.1v0.5v17.4c0,0.2,0,0.3,0,0.5c0,0.2,0.1,0.3,0.3,0.3c0.2,0,0.4,0,0.7,0h15.5
				c0.1,0,0.2,0,0.3,0c0.2,0,0.2,0,0.2,0.2c0,0.1,0,0.2,0,0.3v9c0,0.1,0,0.2,0,0.2c0.1,0.2-0.1,0.4-0.3,0.6
				c-0.6,0.6-1.3,1.2-1.9,1.8l-3.9,3.7c-0.4,0.4-2,1.9-2.5,2.3l-3.9,3.6l-2.5,2.3l-3.9,3.6L313.6,414l-3.9,3.6
				c-0.2,0.1-0.3,0.3-0.5,0.4L309.1,418.2L309.1,418.2z"/>
			<path id="XMLID_53_" class="st2" d="M328.2,353.4h1h0.9c0.1,0,0.2,0,0.4,0c0,0,0.1,0,0.1,0c0,0.2,0,0.3,0,0.5v6.2v11.2
				c0,0.2,0,0.3,0,0.5c0,0.2,0.2,0.4,0.4,0.4c0.2,0,0.4,0,0.7,0h10.8h4.5h0.1h0.1c0.1,0,0.2,0,0.3,0c0.1,0,0.1,0,0.1,0c0,0,0,0,0,0
				c0,0,0,0,0,0.1c0,0.1,0,0.2,0,0.3v0.1v8.9v0.1c0,0.1,0,0.1,0,0.2c0,0.2,0,0.3-0.3,0.5c-0.6,0.6-1.3,1.2-1.9,1.8l-1.6,1.5
				c-0.8,0.7-1.6,1.5-2.3,2.2c-0.4,0.4-0.8,0.8-1.2,1.1s-0.8,0.8-1.2,1.1c-0.7,0.6-1.4,1.3-2.1,2l-1.8,1.7c-0.4,0.4-0.8,0.8-1.2,1.2
				c-0.4,0.4-0.8,0.8-1.3,1.2c-0.7,0.7-1.5,1.4-2.2,2l-1.7,1.6c-0.6,0.6-1.2,1.2-1.9,1.7l-0.6,0.5l-1.4,1.3l-2.5,2.3l-1.3,1.2
				l-1.2,1.2l-3.1,2.9l-0.8,0.7l-0.9,0.8c-0.5,0.5-1.1,1-1.6,1.5l-1.9,1.8l-1.9,1.8c-0.2,0.1-0.3,0.3-0.5,0.4l0,0v-0.3v-3v-42
				c0-0.2,0-0.3,0-0.5l0,0l0,0c0.2,0,0.4,0,0.6,0h3.5h2h2c2.6,0,5.2,0,7.9,0h0.3h0.2c0.2,0,0.4,0,0.5-0.1c0.1-0.1,0.1-0.3,0.1-0.5
				c0-0.1,0-0.2,0-0.3c0-3,0-6,0-9c0-2.8,0-5.6,0-8.3c0-0.1,0-0.2,0-0.2c0-0.1,0-0.3,0-0.3c0,0,0.1,0,0.2,0h0.2h0.3h0.1
				C327.4,353.4,327.8,353.4,328.2,353.4 M328.2,353.3c-0.4,0-0.8,0-1.2,0c0,0-0.1,0-0.1,0c-0.2,0-0.3,0-0.4,0
				c-0.5,0-0.4,0.1-0.4,0.7c0,5.8,0,11.5,0,17.3c0,0.7,0.1,0.8-0.5,0.8c-0.1,0-0.3,0-0.5,0h0c-2.6,0-5.2,0-7.8,0c-1.3,0-2.6,0-3.9,0
				c-1.2,0-2.3,0-3.5,0c-0.2,0-0.4,0-0.7,0c-0.1,0-0.2,0.1-0.2,0.1c0,0.2,0,0.4,0,0.5c0,15,0,30,0,45.1c0,0.2,0,0.4,0,0.5
				c0,0,0.1,0,0.1,0c0.2-0.2,0.5-0.4,0.7-0.6c1.3-1.2,2.6-2.4,3.9-3.6c0.8-0.8,1.7-1.6,2.5-2.4c1.3-1.2,2.6-2.4,3.9-3.6
				c0.8-0.8,1.7-1.6,2.5-2.3c1.3-1.2,2.6-2.4,3.9-3.6c0.8-0.8,1.6-1.5,2.4-2.3c1.3-1.2,2.6-2.4,3.9-3.6c0.8-0.8,1.7-1.6,2.5-2.3
				c1.3-1.2,2.6-2.4,3.9-3.6c0.8-0.8,1.6-1.5,2.5-2.3c1.3-1.2,2.6-2.5,3.9-3.7c0.6-0.6,1.3-1.2,1.9-1.8c0.2-0.2,0.4-0.4,0.3-0.7
				c0-0.1,0-0.1,0-0.2c0-3,0-5.9,0-8.9c0-0.1,0-0.2,0-0.4c0-0.2-0.1-0.3-0.3-0.3c-0.1,0-0.2,0-0.3,0c-0.1,0-0.2,0-0.2,0l0,0
				c-5.1,0-10.2,0-15.3,0c-0.2,0-0.4,0-0.7,0c-0.2,0-0.2-0.1-0.2-0.2c0-0.2,0-0.3,0-0.5c0-5.8,0-11.6,0-17.4c0-0.2,0-0.3,0-0.5
				c0-0.1-0.1-0.2-0.2-0.2c-0.1,0-0.3,0-0.4,0C329.4,353.3,328.8,353.3,328.2,353.3L328.2,353.3z"/>
		</g>
		<g id="XMLID_7_">
			<path id="XMLID_58_" class="st2" d="M254.3,418.2c-0.1-0.1-0.2-0.1-0.3-0.2c0,0-0.1-0.1-0.1-0.1c-0.8-0.8-1.6-1.5-2.5-2.3
				l-1.5-1.4l-2.4-2.3l-3.9-3.7c-0.4-0.4-0.8-0.8-1.2-1.2c-0.4-0.4-0.9-0.8-1.3-1.2l-3.8-3.6c-0.4-0.4-2.5-2.3-2.5-2.3l-3.9-3.6
				l-2.5-2.3l-3.9-3.7c0,0-2.1-1.9-2.5-2.3l-3.8-3.6c-0.7-0.7-1.4-1.3-2.2-2c-0.2-0.2-0.3-0.4-0.3-0.6c0-2.4,0-4.8,0-7.2v-2
				c0-0.2,0-0.4,0-0.4c0,0,0.2,0,0.4,0H232c0.1,0,0.3,0,0.4,0c0.3,0,0.4-0.1,0.4-0.4c0-0.1,0-0.3,0-0.4v-17.7c0-0.2,0-0.3,0-0.3
				s0.2,0,0.3,0h3.9c0.2,0,0.2,0.1,0.2,0.1c0,0.2,0,0.4,0,0.5v17.6c0,0.5,0.1,0.5,0.7,0.5h15.6c0.2,0,0.4,0,0.6,0
				c0.2,0,0.2,0,0.2,0.2c0,0.1,0,0.2,0,0.4v25.5c0,6.5,0,13,0,19.5c0,0.1,0,0.1,0,0.2C254.4,418,254.4,418.1,254.3,418.2z"/>
			<path id="XMLID_49_" class="st2" d="M234.8,353.4h0.9h0.9h0.2h0.2c0.1,0,0.1,0,0.1,0l0,0c0,0.2,0,0.4,0,0.5V368v3.2v0.1
				c0,0.1,0,0.2,0,0.3c0,0.6,0.1,0.6,0.8,0.6h8.4h2.4h2.4h1.7h0.3h0.3c0.2,0,0.4,0,0.6,0c0.1,0,0.1,0,0.1,0l0,0c0,0,0,0,0,0.1
				c0,0.1,0,0.2,0,0.3v0.1v20.1v2.4v2.7c0,6.6,0,13.2,0,19.8c0,0.1,0,0.1,0,0.2c0,0.1,0,0.2,0,0.2c-0.1,0-0.1-0.1-0.2-0.2
				c0,0-0.1-0.1-0.1-0.1c-0.8-0.8-1.7-1.6-2.5-2.3L250,414c-0.4-0.4-0.8-0.7-1.2-1.1c-0.4-0.4-0.8-0.8-1.2-1.1
				c-0.6-0.6-1.2-1.1-1.8-1.7c-0.7-0.7-1.4-1.3-2.1-2c-0.4-0.4-0.8-0.8-1.2-1.2c-0.4-0.4-0.9-0.8-1.3-1.2c-0.6-0.6-1.3-1.2-2-1.8
				c-0.6-0.6-1.2-1.1-1.8-1.7c-0.4-0.4-0.9-0.8-1.3-1.2c-0.4-0.4-0.8-0.8-1.2-1.1c-0.7-0.6-1.3-1.2-2-1.9c-0.6-0.6-1.2-1.2-1.9-1.8
				c-0.4-0.4-0.8-0.8-1.2-1.2c-0.4-0.4-0.8-0.8-1.2-1.1c-0.6-0.6-1.2-1.2-1.8-1.7c-0.7-0.6-1.4-1.3-2.1-1.9
				c-0.4-0.4-0.8-0.7-1.2-1.1c-0.4-0.4-0.9-0.8-1.3-1.2c-0.6-0.6-1.3-1.2-1.9-1.8c-0.6-0.6-1.3-1.2-1.9-1.8c-0.7-0.6-1.4-1.3-2.2-2
				c-0.2-0.2-0.3-0.3-0.3-0.6c0-2.4,0-4.8,0-7.3v-1.9v-0.1c0-0.1,0-0.2,0-0.3c0,0,0.2,0,0.3,0h0.1h0.1h7.6h7.9h0.1h0.1
				c0.1,0,0.3,0,0.4,0c0.3,0,0.5-0.1,0.5-0.4c0-0.1,0-0.3,0-0.4v-0.1v-4.5c0-4.3,0-8.6,0-12.8c0-0.1,0-0.2,0-0.2c0-0.1,0-0.2,0-0.2
				c0,0,0.1,0,0.2,0h0.1h0.2h0.1C234,353.4,234.4,353.4,234.8,353.4 M234.8,353.3c-0.4,0-0.8,0-1.2,0c0,0,0,0-0.1,0
				c-0.1,0-0.3,0-0.4,0c-0.5,0-0.4,0.1-0.4,0.6c0,5.8,0,11.5,0,17.3c0,0.2,0,0.4,0,0.5c0,0.2-0.1,0.3-0.3,0.3c-0.1,0-0.3,0-0.4,0
				c-0.1,0-0.2,0-0.2,0l0,0c-5.2,0-10.3,0-15.5,0l0,0c0,0-0.1,0-0.1,0c-0.5,0-0.5,0-0.5,0.5c0,3.1,0,6.1,0,9.2
				c0,0.3,0.1,0.5,0.3,0.7c0.7,0.7,1.5,1.3,2.2,2c1.3,1.2,2.5,2.4,3.8,3.6c0.8,0.8,1.7,1.6,2.5,2.3c1.3,1.2,2.6,2.4,3.9,3.7
				c0.8,0.8,1.6,1.5,2.5,2.3c1.3,1.2,2.6,2.4,3.9,3.6c0.8,0.8,1.7,1.6,2.5,2.3c1.3,1.2,2.5,2.4,3.8,3.6c0.8,0.8,1.7,1.6,2.5,2.4
				c1.3,1.2,2.6,2.4,3.9,3.7c0.8,0.8,1.6,1.5,2.4,2.3c1.3,1.2,2.6,2.5,4,3.7c0.2,0.1,0.3,0.3,0.5,0.4c0.2-0.2,0.1-0.4,0.1-0.6
				c0-7.5,0-15,0-22.4c0-7.5,0-15,0-22.5c0-0.2,0-0.3,0-0.5c0-0.2-0.1-0.3-0.3-0.3c-0.2,0-0.4,0-0.6,0c-0.2,0-0.4,0-0.6,0
				c0,0,0,0,0,0c-0.6,0-1.2,0-1.7,0c-1.6,0-3.2,0-4.8,0c-2.8,0-5.6,0-8.4,0c-0.6,0-0.6,0-0.6-0.5c0-0.1,0-0.2,0-0.4
				c0-5.7,0-11.5,0-17.2c0-0.2,0-0.4,0-0.5c0-0.1-0.1-0.2-0.3-0.2c-0.2,0-0.3,0-0.5,0C236,353.3,235.4,353.3,234.8,353.3
				L234.8,353.3z"/>
		</g>
		<g id="XMLID_6_">
			<path id="XMLID_181_" class="st2" d="M233.2,453.1c-0.3,0-0.3,0-0.3-0.2c0-0.1,0-0.2,0-0.3v-4.4c0-4.3,0-8.6,0-13l0-0.3
				c0-0.2,0-0.4-0.1-0.4c-0.1-0.1-0.2-0.1-0.4-0.1l-0.5,0h-15.9c-0.1,0-0.2,0-0.3,0c0,0,0-0.1,0-0.2l0-0.2v-45.6l0.4,0.3
				c0.3,0.3,0.6,0.6,0.9,0.9c1,0.9,2,1.9,3,2.8c0,0,2.2,2,2.7,2.5c0,0,2.6,2.4,3.2,3c0.4,0.4,0.8,0.8,1.3,1.2
				c0.5,0.4,0.9,0.9,1.4,1.3c0.6,0.6,3.1,2.9,3.8,3.5c0.5,0.4,0.9,0.9,1.4,1.3c0.4,0.4,0.9,0.9,1.3,1.3c0.6,0.6,3.6,3.3,3.6,3.3
				c0.5,0.4,2.3,2.2,2.7,2.6c0,0,3,2.8,3.6,3.4c0.4,0.4,0.8,0.8,1.3,1.2c0.4,0.4,0.9,0.9,1.3,1.3c0.6,0.6,3.1,2.9,3.8,3.5
				c0.4,0.3,0.7,0.7,1.1,1c0.5,0.5,1,1,1.5,1.4c0.2,0.2,0.3,0.4,0.3,0.6c0,2.5,0,5,0,7.4v1.9c0,0.1,0,0.1,0,0.2c0,0.1,0,0.2-0.2,0.2
				h-16.4c-0.2,0-0.3,0-0.4,0.1c-0.1,0.1-0.1,0.2-0.1,0.5v17.8c0,0.2,0,0.3,0,0.4c0,0-0.2,0-0.3,0h-1.5L233.2,453.1z"/>
			<path id="XMLID_64_" class="st2" d="M215.9,388.5l0.2,0.2c0.3,0.3,0.6,0.6,0.9,0.8c1,1,2,1.9,3.1,2.9l1.1,1.1
				c0.5,0.5,1,1,1.6,1.5c0.5,0.5,1,0.9,1.5,1.4c0.6,0.5,1.1,1,1.7,1.6c0.4,0.4,0.8,0.8,1.3,1.2c0.5,0.4,0.9,0.9,1.4,1.3
				c0.6,0.6,1.2,1.2,1.9,1.7c0.6,0.6,1.3,1.2,1.9,1.8c0.5,0.4,0.9,0.9,1.4,1.3c0.4,0.4,0.9,0.8,1.3,1.3c0.6,0.6,1.2,1.1,1.8,1.7
				c0.6,0.5,1.2,1.1,1.8,1.6c0.5,0.4,0.9,0.9,1.4,1.3c0.5,0.4,0.9,0.9,1.4,1.3c0.6,0.5,1.2,1.1,1.7,1.6c0.6,0.6,1.2,1.2,1.9,1.7
				c0.4,0.4,0.8,0.8,1.3,1.2c0.4,0.4,0.9,0.8,1.3,1.3c0.6,0.6,1.3,1.2,1.9,1.8c0.6,0.6,1.2,1.2,1.9,1.7c0.4,0.3,0.7,0.7,1.1,1
				c0.5,0.5,1,1,1.5,1.4c0.2,0.2,0.3,0.3,0.3,0.5c0,2.4,0,4.9,0,7.3v2c0,0,0,0.1,0,0.1c0,0,0,0.1,0,0.1c0,0-0.1,0-0.2,0
				c-0.1,0-0.1,0-0.2,0h-0.2h-0.2h-0.3h-3.8h-3.8h-7.6h-0.2h-0.2c-0.2,0-0.4,0-0.5,0.1c-0.1,0.1-0.1,0.3-0.1,0.5v0.2v8.3
				c0,3,0,6.1,0,9.1v0.2c0,0.1,0,0.3,0,0.3c0,0-0.2,0-0.3,0h-0.1h-0.2h-0.1c-0.4,0-0.7,0-1.1,0h-0.9h-0.9h-0.1h-0.1
				c-0.1,0-0.1,0-0.2,0c-0.1,0-0.2,0-0.2,0c0,0,0,0,0,0c0,0,0,0,0-0.1c0-0.1,0-0.2,0-0.3v-0.1v-4.3c0-4.3,0-8.7,0-13
				c0-0.1,0-0.2,0-0.3c0-0.3,0-0.4-0.1-0.5c-0.1-0.1-0.3-0.1-0.4-0.1h-0.2c-0.1,0-0.2,0-0.3,0c-2.4,0-4.8,0-7.2,0H223h-1.7h-4.9
				h-0.2h-0.1c0,0-0.1,0-0.2,0c0,0,0-0.1,0-0.2c0-0.1,0-0.1,0-0.2c0-12.6,0-25.2,0-37.9v-7.3L215.9,388.5 M215.8,388.2
				c0,0-0.1,0-0.1,0c0,0.2,0,0.4,0,0.6c0,15,0,30.1,0,45.1c0,0.5-0.1,0.6,0.4,0.6c0.1,0,0.2,0,0.4,0h0c1.6,0,3.3,0,4.9,0
				c1.1,0,2.2,0,3.3,0c2.4,0,4.8,0,7.2,0h0c0.2,0,0.4,0,0.5,0c0.4,0,0.4,0.1,0.4,0.7c0,5.8,0,11.5,0,17.3c0,0.2,0,0.3,0,0.5
				c0,0.3,0.1,0.3,0.4,0.3c0.1,0,0.1,0,0.2,0c0.1,0,0.1,0,0.2,0l0,0c0.6,0,1.2,0,1.7,0c0.4,0,0.7,0,1.1,0c0,0,0.1,0,0.1,0
				c0.1,0,0.2,0,0.3,0c0.5,0,0.5-0.1,0.5-0.7c0-5.8,0-11.6,0-17.4c0-0.6-0.1-0.7,0.4-0.7c0.1,0,0.2,0,0.4,0h0c2.5,0,5.1,0,7.6,0
				c2.5,0,5,0,7.5,0c0.1,0,0.2,0,0.3,0c0.1,0,0.2,0,0.3,0c0.1,0,0.2,0,0.2,0c0.3,0,0.3,0,0.3-0.2c0-0.1,0-0.1,0-0.2
				c0-3.1,0-6.2,0-9.4c0-0.3-0.1-0.5-0.3-0.7c-0.9-0.8-1.7-1.6-2.6-2.5c-1.2-1.2-2.5-2.3-3.8-3.5c-0.9-0.8-1.7-1.6-2.6-2.5
				c-1.2-1.1-2.4-2.2-3.6-3.4c-0.9-0.9-1.8-1.7-2.7-2.6c-1.2-1.1-2.4-2.2-3.6-3.3c-0.9-0.9-1.8-1.7-2.7-2.6
				c-1.2-1.2-2.5-2.3-3.8-3.5c-0.9-0.8-1.8-1.7-2.6-2.5c-1.1-1-2.1-2-3.2-3c-0.9-0.8-1.8-1.7-2.7-2.5c-1-1-2-1.9-3.1-2.9
				C216.7,389,216.3,388.6,215.8,388.2L215.8,388.2z"/>
		</g>
		<g id="XMLID_5_">
			<path id="XMLID_185_" class="st2" d="M279.8,496.9c-0.2,0-0.2,0-0.2-0.1c0-0.1,0-0.3,0-0.4V460c0-0.3,0-0.4-0.1-0.5
				c-0.1-0.1-0.2-0.1-0.4-0.1h-16.2c-0.1,0-0.3,0-0.3,0c0,0,0-0.2,0-0.3c0,0,0-17.8,0-26.6c0-0.1,0-0.2,0-0.4V432l1,0.9
				c0.8,0.8,1.6,1.5,2.4,2.3c0.6,0.6,3.5,3.3,3.5,3.3c0.5,0.4,2.7,2.5,2.7,2.5l3.7,3.5c0.7,0.6,2.8,2.6,2.8,2.6l2.8,2.6
				c0.1,0.1,0.1,0.1,0.2,0.2c0.1,0.1,0.1,0.1,0.2,0.1s0.1,0,0.2-0.1c0.2-0.1,0.3-0.2,0.4-0.3c0.4-0.4,2-1.9,2.5-2.3
				c0.6-0.6,3.2-2.9,3.8-3.5c0.5-0.4,0.9-0.9,1.4-1.3c0.4-0.4,0.9-0.8,1.3-1.2c0.6-0.6,3.6-3.4,3.6-3.4c0.6-0.6,2.7-2.6,2.7-2.6
				l3.2-3.1l0.1,0c0,0.2,0,0.4,0,0.6c0,0,0,18.6,0,26.1v0.3c0,0.2,0,0.3,0,0.3c0,0-0.2,0-0.3,0h-0.5h-15.5c-0.5,0-0.7,0-0.8,0.1
				c-0.1,0.1-0.1,0.2-0.1,0.5v0.2v36c0,0.2,0,0.4,0,0.6c0,0-0.1,0-0.1,0.1c-0.1,0-0.2,0-0.3,0h-3.6
				C279.9,496.9,279.8,496.9,279.8,496.9z"/>
			<path id="XMLID_182_" class="st2" d="M300.9,432.2c0,0.2,0,0.3,0,0.5v4c0,7.4,0,14.7,0,22.1c0,0.1,0,0.2,0,0.3c0,0.1,0,0.3,0,0.3
				c0,0-0.1,0-0.2,0h-0.2c-0.1,0-0.2,0-0.3,0c-2.5,0-5.1,0-7.6,0h-7.8h-0.1c0,0,0,0,0,0c-0.5,0-0.7,0-0.8,0.1
				c-0.1,0.1-0.1,0.3-0.1,0.5c0,0.1,0,0.1,0,0.2c0,7.9,0,15.8,0,23.7v12.3c0,0.2,0,0.4,0,0.5c0,0,0,0,0,0l0,0c-0.1,0-0.2,0-0.3,0
				h-2.3h-1.1H280h-0.1c0,0-0.1,0-0.1,0c-0.1,0-0.1,0-0.1,0c0,0,0,0,0,0c0,0,0,0,0,0c0-0.1,0-0.3,0-0.4v-0.1v-21v-2.8v-3.1v-9.2V460
				c0-0.3,0-0.5-0.1-0.6c-0.1-0.1-0.3-0.1-0.5-0.1h-0.2h-0.2h-7.4h-1.4h-6.7h-0.2h-0.1c-0.1,0-0.2,0-0.2,0c0,0,0-0.2,0-0.3v-0.2
				c0-8.8,0-17.6,0-26.4c0-0.1,0-0.1,0-0.2l0.8,0.8c0.8,0.8,1.6,1.5,2.4,2.3c0.6,0.6,1.2,1.1,1.8,1.7c0.6,0.5,1.1,1,1.7,1.6
				c0.5,0.4,0.9,0.9,1.4,1.3c0.4,0.4,0.8,0.8,1.3,1.2c0.6,0.6,1.2,1.1,1.8,1.7c0.6,0.6,1.3,1.2,1.9,1.8c0.6,0.6,1.3,1.2,1.9,1.8
				l0.8,0.8l0.6,0.6l2.2,2.1c0.1,0.1,0.1,0.1,0.2,0.2c0.1,0.1,0.2,0.1,0.3,0.1c0.1,0,0.2,0,0.2-0.1c0.2-0.1,0.3-0.2,0.4-0.4
				c0.4-0.4,0.8-0.7,1.1-1.1c0.4-0.4,0.9-0.8,1.3-1.3c0.6-0.6,1.3-1.2,1.9-1.8c0.6-0.6,1.3-1.2,1.9-1.8c0.5-0.4,0.9-0.9,1.4-1.3
				c0.4-0.4,0.9-0.8,1.3-1.2c0.6-0.6,1.2-1.2,1.9-1.7c0.6-0.5,1.2-1.1,1.7-1.6c0.6-0.6,1.3-1.2,1.9-1.8l0.8-0.8L300.9,432.2
				 M262.4,431.8c0,0.3,0,0.5,0,0.6c0,8.8,0,17.6,0,26.4c0,0.6-0.1,0.6,0.4,0.6c0.1,0,0.2,0,0.4,0c0,0,0,0,0,0c2.2,0,4.5,0,6.7,0
				c0.5,0,0.9,0,1.4,0c2.5,0,4.9,0,7.4,0h0c0.2,0,0.3,0,0.4,0c0.5,0,0.4,0.1,0.4,0.7c0,4.1,0,8.2,0,12.3c0,7.9,0,15.9,0,23.8
				c0,0.2,0,0.4,0,0.5c0,0.2,0.1,0.2,0.3,0.2c0.1,0,0.1,0,0.1,0c0,0,0,0,0.1,0c0.4,0,0.9,0,1.3,0c0.8,0,1.5,0,2.3,0
				c0.1,0,0.2,0,0.3,0c0.1,0,0.2-0.1,0.2-0.1c0-0.2,0-0.4,0-0.6c0-12,0-24,0-36c0-0.7-0.1-0.7,0.8-0.7c0,0,0.1,0,0.1,0
				c2.6,0,5.2,0,7.8,0c2.5,0,5.1,0,7.6,0h0c0.2,0,0.3,0,0.5,0c0.5,0,0.4-0.1,0.4-0.7c0-8.7,0-17.4,0-26.1c0-0.2,0-0.4,0-0.6
				c0-0.1,0-0.1-0.1-0.1c0,0,0,0,0,0c-0.1,0-0.1,0-0.1,0.1c-1.1,1-2.2,2-3.2,3.1c-0.9,0.9-1.8,1.7-2.7,2.6c-1.2,1.1-2.4,2.2-3.6,3.4
				c-0.9,0.8-1.8,1.7-2.7,2.5c-1.3,1.2-2.5,2.4-3.8,3.5c-0.8,0.8-1.6,1.6-2.5,2.3c-0.1,0.1-0.3,0.2-0.4,0.3c0,0-0.1,0-0.1,0
				s-0.1,0-0.2-0.1c-0.1-0.1-0.1-0.1-0.2-0.2c-0.9-0.9-1.9-1.7-2.8-2.6s-1.9-1.8-2.8-2.6c-1.2-1.2-2.5-2.3-3.7-3.5
				c-0.9-0.8-1.8-1.7-2.7-2.5c-1.2-1.1-2.3-2.2-3.5-3.3C264.8,434.1,263.6,433,262.4,431.8L262.4,431.8z"/>
		</g>
		<g id="XMLID_4_">
			<path id="XMLID_189_" class="st2" d="M281.7,443.9c0,0-0.1,0-0.1-0.1c-0.4-0.4-0.8-0.7-1.2-1.1l-2.7-2.5c-1.3-1.2-2.7-2.5-4-3.7
				l-2.4-2.3l-3.9-3.7c-0.4-0.4-2.5-2.4-2.5-2.4l-0.8-0.8c-0.4-0.4-0.9-0.8-1.3-1.3c-0.2-0.2-0.2-0.3-0.2-0.5c0-0.8,0-1.5,0-2.3
				v-0.9c0-0.1,0-0.1,0-0.2c0,0,0-0.1,0.1-0.1c0.2,0,0.4,0,0.6,0h15.6c0.4,0,0.6,0,0.7-0.1c0.1-0.1,0.1-0.2,0.1-0.5v-5.2
				c0-0.1,0-0.2,0-0.3c0-0.2,0-0.2,0.2-0.2h1.8h2.1c0.2,0,0.2,0,0.2,0.2c0,0.3,0,0.7,0,1v4.4c0,0.1,0,0.3,0,0.4
				c0,0.2,0.1,0.3,0.3,0.3c0.2,0,0.4,0,0.7,0h15.3l0.5,0c0.1,0,0.3,0,0.3,0c0,0,0,0.2,0,0.4v0.3c0,0.5,0,0.9,0,1.3c0,0.5,0,1,0,1.5
				c0,0.2-0.1,0.3-0.2,0.5c-1.6,1.5-3.2,2.9-4.7,4.4l-2.4,2.2c-1,1-2,1.9-3.1,2.9c-0.8,0.7-1.5,1.4-2.3,2.2
				c-0.6,0.6-1.2,1.1-1.8,1.7c-1,0.9-4.4,4.1-4.4,4.1c-0.1,0.1-0.2,0.2-0.3,0.2C281.8,443.8,281.7,443.9,281.7,443.9z"/>
			<path id="XMLID_186_" class="st2" d="M281.6,415.9c0.7,0,1.4,0,2,0c0.1,0,0.1,0,0.1,0c0,0,0,0,0,0.1c0,0.3,0,0.7,0,1v0.3v1.5v2.5
				c0,0.1,0,0.3,0,0.4c0,0.2,0.2,0.3,0.4,0.3c0.2,0,0.4,0,0.7,0h3.2h2.2h2.2c2.6,0,5.2,0,7.8,0c0.1,0,0.2,0,0.3,0h0.2
				c0.1,0,0.2,0,0.2,0c0,0,0,0.2,0,0.3c0,0.1,0,0.2,0,0.3c0,0.4,0,0.9,0,1.3c0,0.5,0,1,0,1.5c0,0.2-0.1,0.3-0.2,0.4
				c-1.6,1.5-3.1,2.9-4.7,4.4c-0.8,0.7-1.6,1.5-2.4,2.2c-1,1-2,1.9-3.1,2.9c-0.8,0.7-1.5,1.4-2.3,2.1c-0.6,0.6-1.2,1.1-1.8,1.7
				c-1,0.9-2,1.8-2.9,2.8l-1.4,1.3l0,0c-0.1,0.1-0.1,0.1-0.2,0.2c0,0,0,0,0,0c0,0,0,0-0.1,0c-0.4-0.4-0.8-0.7-1.2-1.1
				c-0.5-0.5-1-0.9-1.5-1.4c-0.4-0.4-0.8-0.8-1.2-1.2c-1.3-1.2-2.7-2.5-4-3.7c-0.4-0.4-0.8-0.7-1.2-1.1c-0.4-0.4-0.8-0.8-1.2-1.2
				c-0.6-0.6-1.2-1.1-1.8-1.7c-0.7-0.7-1.4-1.3-2.1-2c-0.4-0.4-0.9-0.8-1.3-1.2c-0.4-0.4-0.8-0.8-1.2-1.2c-0.3-0.3-0.6-0.5-0.9-0.8
				c-0.4-0.4-0.9-0.8-1.3-1.3c-0.1-0.1-0.2-0.2-0.2-0.4c0-0.8,0-1.5,0-2.3v-1c0-0.1,0-0.1,0-0.2c0,0,0,0,0,0c0.2,0,0.4,0,0.6,0h4.7
				h1.5h1.5h2.2h2.2h3.4h0.1c0.4,0,0.6,0,0.8-0.1c0.1-0.1,0.1-0.3,0.1-0.5v-0.1v-3.2v-1.7v-0.1c0-0.1,0-0.2,0-0.3c0,0,0-0.1,0-0.1
				c0,0,0.1,0,0.1,0C280.4,415.9,281,415.9,281.6,415.9 M281.6,415.8c-0.6,0-1.2,0-1.8,0c-0.3,0-0.3,0-0.3,0.2c0,0.1,0,0.3,0,0.4
				c0,1.6,0,3.3,0,4.9c0,0.6,0.1,0.6-0.7,0.6c0,0-0.1,0-0.1,0c-1.1,0-2.3,0-3.4,0c-1.5,0-2.9,0-4.4,0c-1,0-2,0-3,0
				c-1.6,0-3.1,0-4.7,0c-0.2,0-0.4,0-0.6,0c-0.1,0-0.2,0.1-0.2,0.2c0,0.1,0,0.1,0,0.2c0,1.1,0,2.2,0,3.2c0,0.2,0.1,0.4,0.3,0.5
				c0.7,0.7,1.5,1.4,2.2,2.1c0.8,0.8,1.7,1.6,2.5,2.4c1.3,1.2,2.6,2.4,3.9,3.7c0.8,0.8,1.6,1.5,2.4,2.3c1.3,1.2,2.7,2.5,4,3.7
				c0.9,0.8,1.8,1.7,2.7,2.5c0.4,0.4,0.8,0.7,1.2,1.1c0.1,0.1,0.1,0.1,0.2,0.1c0.1,0,0.1,0,0.2-0.1c0.1-0.1,0.2-0.2,0.3-0.2
				c1.5-1.4,2.9-2.7,4.4-4.1c1.4-1.3,2.8-2.6,4.1-3.8c1.8-1.7,3.6-3.4,5.4-5.1c1.6-1.5,3.1-3,4.7-4.4c0.2-0.2,0.3-0.3,0.3-0.6
				c0-0.9,0-1.9,0-2.8c0-0.7,0.1-0.8-0.4-0.8c-0.1,0-0.3,0-0.5,0c0,0,0,0,0,0c-2.6,0-5.2,0-7.8,0c-1.4,0-2.9,0-4.3,0
				c-1.1,0-2.1,0-3.2,0c-0.2,0-0.4,0-0.7,0c-0.1,0-0.2-0.1-0.2-0.2c0-0.1,0-0.3,0-0.4c0-1.3,0-2.7,0-4c0-0.4,0-0.9,0-1.3
				c0-0.2,0-0.3-0.3-0.3C283,415.8,282.3,415.8,281.6,415.8L281.6,415.8z"/>
		</g>
	</g>
</g>
<g class="st3">
	<path class="st2" d="M621.3,454.1H593v-66.4l-31.9,48.5h-3.2l-31.9-48.5v66.4h-28.2V339.9h28.2l33.5,50.7l33.4-50.7h28.3V454.1z"/>
	<path class="st2" d="M754,454.1h-30.8l-6.1-17.7h-45.9l-6.1,17.7h-30.8l42-114.3h35.9L754,454.1z M708,410.2l-14-40.5l-14,40.5H708
		z"/>
	<path class="st2" d="M839.3,454.1H767V339.9h28.2V429h44.1V454.1z"/>
	<path class="st2" d="M924.5,454.1h-72.3V339.9h28.2V429h44.1V454.1z"/>
	<path class="st2" d="M981.9,454.1c-17.1,0-31.3-5.5-42.8-16.4c-11.5-11-17.2-24.5-17.2-40.7c0-16.2,5.7-29.8,17.2-40.7
		c11.5-11,25.7-16.4,42.8-16.4h49.3V365h-49.3c-14.8,0-25,6.5-30.7,19.4h66.6l-14.6,25.2h-52c5.6,13,15.8,19.4,30.7,19.4h49.3v25.1
		H981.9z"/>
	<path class="st2" d="M1098.8,456.4c-17.7,0-32.9-5.7-45.4-17.1c-12.5-11.4-18.8-25.5-18.8-42.3c0-16.8,6.3-30.9,18.8-42.3
		c12.5-11.4,27.7-17.1,45.4-17.1c17.7,0,32.8,5.7,45.3,17.1c12.5,11.4,18.8,25.5,18.8,42.3c0,16.8-6.3,30.9-18.8,42.3
		C1131.6,450.7,1116.5,456.4,1098.8,456.4z M1098.8,430.9c10.1,0,18.6-3.1,25.5-9.3c6.9-6.2,10.4-14.4,10.4-24.7
		c0-10.2-3.5-18.4-10.4-24.6c-7-6.2-15.5-9.4-25.5-9.4c-10.1,0-18.6,3.1-25.5,9.4s-10.5,14.4-10.5,24.6c0,10.2,3.5,18.4,10.5,24.7
		C1080.2,427.8,1088.7,430.9,1098.8,430.9z"/>
</g>
<g id="Camada_4" class="st0">
	<g id="XMLID_26_" class="st4">
		<g id="XMLID_24_">
			<path id="XMLID_163_" class="st2" d="M279.6,471.9c-0.2,0-0.4,0-0.6,0c-0.1,0-0.1,0-0.2-0.1c-0.1,0-0.1-0.1-0.2-0.2
				c-0.3-0.3-0.6-0.6-0.9-0.9l-57.3-57.3c-0.3-0.3-1.1-1.1-1.1-1.1c-0.1-0.1-0.2-0.3-0.2-0.4c0-0.3,0-0.6,0-0.9v-27.6
				c0-0.3,0-0.6,0-0.9c0-0.2,0.1-0.3,0.2-0.4c0,0,0.8-0.8,1-1l57.4-57.4c0.3-0.3,0.5-0.5,0.8-0.7l0.3-0.3c0.1-0.1,0.3-0.2,0.4-0.2
				c0.1,0,0.3,0,0.4,0h27.7c0.5,0,0.9,0,1.4,0c0.1,0,0.2,0,0.3,0.1c0.2,0.2,0.9,0.9,1.1,1.1l57.2,57.2c0.2,0.2,1.1,1.1,1.1,1.1
				c0.1,0.1,0.2,0.2,0.2,0.4c0,0.3,0,0.6,0,0.8V411c0,0.3,0,0.6,0,0.8c0,0.2-0.1,0.4-0.2,0.6c-0.2,0.1-0.8,0.8-0.8,0.8l-57.6,57.6
				c-0.3,0.3-0.7,0.7-1,1c0,0-0.1,0.1-0.2,0.1c-0.1,0-0.3,0-0.4,0H299c-0.1,0-0.2,0-0.3,0l-0.2,0c-0.1,0-0.3-0.1-0.3-0.2l0-0.2
				c0-0.1,0-0.2,0-0.3c0-0.3,0-0.7,0-1v-39c0-0.4,0-0.8,0-1.2l0-0.3c0-0.1,0.1-0.3,0.2-0.3l0.1,0c0.1,0,0.2,0,0.3,0h1.3h18.4
				c0.5,0,1,0,1.4,0c0.3,0,0.6-0.2,0.6-0.5c0-0.5,0-0.9,0-1.3v-60.4c0-0.4,0-0.8,0-1.3l0-0.3c0-0.2-0.2-0.5-0.5-0.5l-0.1,0
				c-0.1,0-0.2,0-0.3,0c-0.2,0-0.9,0-0.9,0h-50.2l-0.6,0c-0.2,0-0.5,0-0.7,0.1c-0.1,0-0.2,0.1-0.3,0.2c-0.1,0.1-0.1,0.2-0.1,0.3
				c0,0.4,0,0.8,0,1.1v61.1c0,0.3,0,0.7,0,1c0,0.1,0.2,0.4,0.4,0.4l0.1,0c0.1,0,0.2,0,0.3,0c0.3,0,1.6,0,1.6,0h19.4
				c0.3,0,0.4,0,0.5,0.1c0.1,0.1,0.1,0.2,0.1,0.5c0,0.2,0,0.5,0,0.7v39.5c0,0.4,0,0.7,0,1.1l0,0.5c0,0-0.1,0.1-0.2,0.2l-0.1,0
				c-0.1,0-0.3,0-0.4,0h-5.3L279.6,471.9z"/>
			<path id="XMLID_160_" d="M290.5,322.5h16.7c0.5,0,0.9,0,1.4,0c0.1,0,0.2,0,0.2,0.1c0.2,0.2,0.4,0.4,0.5,0.5
				c0.2,0.2,0.4,0.4,0.6,0.6l21.9,21.9l7,7l8,8l20.5,20.5c0.2,0.2,0.4,0.4,0.6,0.6c0.2,0.2,0.3,0.3,0.5,0.5c0.1,0.1,0.1,0.2,0.1,0.4
				c0,0.3,0,0.6,0,0.8v27.6c0,0.3,0,0.6,0,0.9c0,0.2-0.1,0.3-0.2,0.5c-0.1,0.1-0.3,0.3-0.4,0.5c-0.1,0.1-0.2,0.2-0.4,0.4
				c-19.2,19.2-38.4,38.4-57.7,57.6c-0.3,0.3-0.7,0.7-1,1c0,0,0,0-0.1,0c-0.1,0-0.2,0-0.4,0h-4.9H299c-0.1,0-0.2,0-0.3,0l-0.2,0
				c-0.1,0-0.1-0.1-0.2-0.1c0,0,0-0.1,0-0.2c0-0.1,0-0.2,0-0.3c0-0.3,0-0.6,0-1v-0.2v-3.3c0-11.9,0-23.8,0-35.6c0-0.4,0-0.8,0-1.3
				l0-0.3c0-0.1,0.1-0.1,0.1-0.1l0.1,0c0.1,0,0.2,0,0.3,0c0.3,0,0.6,0,0.9,0h0.2h0.2h3.6h2.6h12.1c0.5,0,0.9,0,1.4,0
				c0.4,0,0.7-0.3,0.7-0.7c0-0.4,0-0.9,0-1.3c0-2.1,0-4.3,0-6.4v-2.1v-21.8v-5.3c0-8.3,0-16.5,0-24.8c0-0.4,0-0.9,0-1.3l0-0.3
				c0-0.3-0.3-0.6-0.6-0.6l-0.1,0c-0.1,0-0.2,0-0.3,0c-0.2,0-0.4,0-0.5,0h-0.2h-0.2h-15.2h-35c-0.1,0-0.2,0-0.3,0
				c-0.1,0-0.2,0-0.3,0c-0.2,0-0.5,0-0.7,0.1c-0.2,0-0.3,0.2-0.4,0.3c-0.1,0.1-0.1,0.2-0.1,0.4c0,0.4,0,0.8,0,1.1
				c0,20.3,0,40.6,0,60.9v0.3c0,0.3,0,0.7,0.1,1c0,0.2,0.3,0.5,0.5,0.5l0.1,0c0.1,0,0.2,0,0.3,0c0.3,0,0.7,0,1,0h0.3h0.3h8.6h9.5
				h0.2h0.2c0.3,0,0.6,0,0.9,0c0.2,0,0.4,0,0.5,0.1c0,0,0.1,0.1,0.1,0.4c0,0.2,0,0.5,0,0.7v0.4v3.5c0,11.9,0,23.7,0,35.6
				c0,0.4,0,0.7,0,1.1l0,0.4c0,0-0.1,0.1-0.1,0.1c-0.1,0-0.1,0-0.1,0c-0.1,0-0.3,0-0.4,0h-4.6h-4.5c-0.2,0-0.4,0-0.5,0
				c0,0-0.1,0-0.2-0.1c-0.1,0-0.1-0.1-0.2-0.1c-0.3-0.3-0.6-0.6-0.9-0.9l-57.4-57.3c-0.3-0.3-0.5-0.5-0.8-0.8l-0.3-0.3
				c-0.1-0.1-0.1-0.2-0.1-0.4c0-0.3,0-0.6,0-0.8v-27.7c0-0.3,0-0.6,0-0.8c0-0.2,0-0.3,0.1-0.4l0.4-0.4c0.2-0.2,0.4-0.4,0.6-0.6
				l21.4-21.4l1.3-1.3l34.8-34.8c0.3-0.3,0.5-0.5,0.8-0.8l0.2-0.2c0.1-0.1,0.2-0.1,0.4-0.1c0.1,0,0.3,0,0.4,0h0.7h0.2h0.1h4.3H290.5
				 M290.5,322.3c-3.3,0-6.6,0-9.9,0c-0.1,0-0.2,0-0.3,0c-0.2,0-0.5,0-0.7,0c-0.1,0-0.3,0-0.4,0c-0.2,0-0.4,0.1-0.5,0.2
				c-0.3,0.3-0.7,0.7-1,1c-12,12-24.1,24-36.1,36.1c-7.1,7.1-14.2,14.2-21.4,21.4c-0.3,0.3-0.7,0.7-1,1c-0.1,0.1-0.2,0.3-0.2,0.5
				c0,0.3,0,0.6,0,0.9c0,9.2,0,18.4,0,27.6c0,0.3,0,0.6,0,0.9c0,0.2,0.1,0.4,0.2,0.5c0.4,0.4,0.7,0.8,1.1,1.1
				c19.1,19.1,38.2,38.2,57.3,57.3c0.3,0.3,0.6,0.6,0.9,0.9c0.1,0.1,0.1,0.1,0.2,0.2c0.1,0,0.2,0.1,0.3,0.1c0.2,0,0.4,0,0.6,0
				c1.5,0,3,0,4.5,0c1.5,0,3.1,0,4.6,0c0.1,0,0.3,0,0.4,0c0,0,0.1,0,0.1,0c0.1,0,0.3-0.2,0.3-0.3c0-0.5,0-1,0-1.6c0-13,0-26,0-39.1
				c0-0.4,0-0.8,0-1.1c0-0.6-0.2-0.7-0.8-0.7c-0.3,0-0.6,0-0.9,0c-0.1,0-0.3,0-0.4,0c-6,0-12.1,0-18.1,0c0,0,0,0,0,0
				c-0.2,0-0.4,0-0.5,0c-0.3,0-0.7,0-1,0c-0.1,0-0.3,0-0.4,0c-0.1,0-0.3-0.2-0.3-0.3c-0.1-0.4,0-0.9,0-1.3c0-20.3,0-40.6,0-60.9
				c0-0.4,0-0.8,0-1.1c0-0.1,0-0.2,0.1-0.3c0-0.1,0.1-0.2,0.2-0.2c0.2,0,0.4-0.1,0.7-0.1c0.2,0,0.4,0,0.6,0l0,0c11.6,0,23.3,0,35,0
				c5.1,0,10.1,0,15.2,0c0.1,0,0.2,0,0.3,0c0.2,0,0.4,0,0.5,0c0.1,0,0.3,0,0.4,0c0.2,0,0.4,0.2,0.4,0.4c0,0.5,0,1,0,1.6
				c0,10,0,20,0,30.1c0,7.3,0,14.5,0,21.8c0,2.9,0,5.7,0,8.6c0,0.4,0,0.9,0,1.3c0,0.2-0.2,0.4-0.5,0.4c-0.5,0-0.9,0-1.4,0
				c-4,0-8.1,0-12.1,0c-0.9,0-1.8,0-2.6,0c-1.2,0-2.4,0-3.6,0c-0.1,0-0.2,0-0.4,0c-0.3,0-0.6,0-0.9,0c-0.1,0-0.3,0-0.4,0
				c-0.2,0-0.4,0.2-0.4,0.4c0,0.5,0,1,0,1.6c0,13,0,25.9,0,38.9c0,0.4,0,0.8,0,1.1c0,0.1,0,0.3,0,0.4c0,0.2,0.2,0.3,0.4,0.3
				c0.1,0,0.3,0,0.4,0c1.5,0,2.9,0,4.3,0c1.6,0,3.3,0,4.9,0c0.1,0,0.3,0,0.4,0c0.1,0,0.2,0,0.3-0.1c0.4-0.3,0.7-0.7,1-1
				c19.2-19.2,38.4-38.4,57.6-57.6c0.3-0.3,0.5-0.6,0.8-0.8c0.2-0.2,0.3-0.4,0.3-0.6c0-0.3,0-0.6,0-0.9c0-9.2,0-18.4,0-27.6
				c0-0.3,0-0.6,0-0.9c0-0.2-0.1-0.4-0.2-0.5c-0.4-0.4-0.7-0.8-1.1-1.1c-9.5-9.5-19-19-28.4-28.4c-9.6-9.6-19.2-19.2-28.8-28.8
				c-0.4-0.4-0.8-0.7-1.1-1.1c-0.1-0.1-0.2-0.2-0.4-0.2c-0.5,0-1,0-1.4,0C301.7,322.3,296.1,322.3,290.5,322.3L290.5,322.3z"/>
		</g>
		<g id="XMLID_23_" class="st0">
			<path id="XMLID_158_" class="st5" d="M219.2,372.7C219.2,372.7,219.2,372.7,219.2,372.7c-0.1,0-0.1-0.1-0.1-0.2
				c0-0.4,0-0.9,0-1.3v-15.4c0-0.4,0-0.9,0-1.3c0-0.1,0.1-0.2,0.1-0.3c0,0,0.2-0.3,0.3-0.3c0.2-0.2,0.5-0.5,0.7-0.7l29.8-29.8
				c0.3-0.3,0.5-0.5,0.8-0.8l0.1-0.1c0.1-0.1,0.3-0.2,0.4-0.2c0.3,0,0.6,0,0.8,0h16.2c0.2,0,0.3,0,0.5,0l0.4,0l0.1,0.1
				c0,0.1-0.1,0.1-0.1,0.2c-0.4,0.4-0.7,0.7-1.1,1.1l-47.7,47.7c-0.2,0.2-0.5,0.5-0.7,0.7L219.2,372.7L219.2,372.7z"/>
			<path id="XMLID_155_" class="st4" d="M258.9,322.5h9.5c0.2,0,0.3,0,0.5,0c0.1,0,0.2,0,0.3,0c0,0-0.1,0.1-0.1,0.1
				c-0.4,0.4-0.7,0.7-1.1,1.1l-47.7,47.7c-0.2,0.2-0.5,0.5-0.7,0.7l-0.4,0.3c0-0.4,0-0.8,0-1.3v-5.8v-1.9v-2v-5.7c0-0.4,0-0.8,0-1.3
				c0-0.1,0-0.2,0.1-0.2l0.1-0.1c0.1-0.1,0.1-0.1,0.2-0.2c0.2-0.2,0.5-0.5,0.7-0.7l29.8-29.8c0.3-0.3,0.5-0.5,0.8-0.8l0.1-0.1
				c0.1-0.1,0.2-0.1,0.4-0.1c0.3,0,0.6,0,0.8,0L258.9,322.5 M258.9,322.3c-2.2,0-4.5,0-6.7,0c-0.3,0-0.6,0-0.9,0
				c-0.2,0-0.4,0.1-0.5,0.2c-0.3,0.3-0.6,0.6-0.9,0.9c-9.9,9.9-19.9,19.9-29.8,29.8c-0.2,0.2-0.5,0.5-0.7,0.7
				c-0.1,0.1-0.2,0.2-0.3,0.3c-0.1,0.1-0.1,0.2-0.2,0.4c0,0.4,0,0.9,0,1.3c0,2.6,0,5.1,0,7.7s0,5.1,0,7.7c0,0.4,0,0.9,0,1.3
				c0,0.1,0,0.2,0.1,0.2c0,0,0.1,0,0.1,0c0.1,0,0.1,0,0.1-0.1c0.4-0.4,0.8-0.7,1.1-1.1c15.9-15.9,31.8-31.8,47.7-47.7
				c0.4-0.4,0.7-0.7,1.1-1.1c0.1-0.1,0.1-0.1,0.2-0.2c0,0,0-0.1,0-0.1c0-0.1-0.1-0.2-0.2-0.2c-0.3,0-0.6,0-0.9,0
				C265.3,322.3,262.1,322.3,258.9,322.3L258.9,322.3z"/>
		</g>
		<g id="XMLID_22_" class="st0">
			<path id="XMLID_153_" class="st5" d="M252.4,471.9c-0.3,0-0.7,0-1,0c-0.2,0-0.3-0.1-0.4-0.2l-0.3-0.3l-0.6-0.6L220.2,441
				c-0.2-0.2-0.4-0.5-0.7-0.7l-0.3-0.3c-0.1,0-0.1-0.1-0.1-0.2l0-0.4c0-0.3,0-0.6,0-0.9v-15.8c0-0.2,0-0.4,0-0.6l0-0.4l0.1,0
				c0.1,0.1,0.1,0.1,0.2,0.2c0.3,0.3,0.5,0.5,0.8,0.8l48.1,48.1l0.3,0.3c0.3,0.3,0.6,0.5,0.8,0.9l-0.1,0.1l-0.2,0
				c-0.3,0-0.5,0-0.8,0L252.4,471.9L252.4,471.9z"/>
			<path id="XMLID_150_" class="st4" d="M219.3,421.8c0,0,0.1,0.1,0.1,0.1c0.3,0.3,0.5,0.5,0.8,0.8l2.6,2.6
				c15.2,15.2,30.3,30.3,45.5,45.5c0.1,0.1,0.2,0.2,0.3,0.3c0.3,0.2,0.5,0.5,0.7,0.7h-0.1c-0.3,0-0.6,0-0.8,0h-8.8h-7.2
				c-0.3,0-0.7,0-1,0c-0.1,0-0.2,0-0.3-0.2l-0.1-0.1l-0.2-0.2c-0.2-0.2-0.4-0.4-0.6-0.6l-1.7-1.7c-9.4-9.4-18.8-18.8-28.1-28.1
				c-0.2-0.2-0.4-0.4-0.7-0.7l-0.3-0.3c0,0,0-0.1,0-0.1l0-0.4c0-0.3,0-0.6,0-0.8c0-1.9,0-3.8,0-5.8v-1.9v-1.9c0-2.1,0-4.2,0-6.2
				c0-0.2,0-0.4,0-0.6L219.3,421.8 M219.2,421.5c-0.1,0-0.2,0.1-0.2,0.2c0,0.3,0,0.7,0,1c0,2.7,0,5.4,0,8.1c0,2.6,0,5.1,0,7.7
				c0,0.4,0,0.9,0,1.3c0,0.1,0,0.2,0.1,0.3c0.3,0.3,0.6,0.7,1,1c9.9,9.9,19.9,19.9,29.8,29.8c0.2,0.2,0.4,0.4,0.6,0.6
				c0.1,0.1,0.2,0.2,0.3,0.3c0.1,0.1,0.3,0.2,0.5,0.2c0.3,0,0.7,0,1,0c2.4,0,4.8,0,7.2,0c2.9,0,5.9,0,8.8,0c0.3,0,0.7,0,1,0
				c0.1,0,0.1,0,0.1,0c0,0,0-0.1,0.1-0.1c0,0,0-0.1,0-0.1c-0.3-0.4-0.7-0.8-1.1-1.1c-16-16-32.1-32-48.1-48.1
				c-0.3-0.3-0.5-0.5-0.8-0.8c-0.1-0.1-0.1-0.1-0.2-0.2C219.3,421.5,219.3,421.5,219.2,421.5C219.2,421.5,219.2,421.5,219.2,421.5
				L219.2,421.5z"/>
		</g>
		<g id="XMLID_21_" class="st0">
			<path id="XMLID_148_" class="st5" d="M368.5,372.6C368.5,372.6,368.5,372.5,368.5,372.6c-0.1,0-0.2-0.1-0.3-0.2
				c-0.3-0.3-0.6-0.6-0.9-0.9c-15.9-15.9-31.8-31.8-47.8-47.8c-0.1-0.1-0.2-0.2-0.3-0.3c-0.3-0.3-0.6-0.6-0.8-0.9
				c0-0.1,0.1-0.1,0.2-0.1c0.4,0,0.8,0,1.1,0h15.5l0.5,0c0.1,0,0.2,0,0.3,0h0.1c0.4,0,0.6,0.1,0.9,0.4c0.2,0.2,0.4,0.4,0.6,0.6
				l0.3,0.3l29.3,29.3c0.3,0.3,1.1,1.1,1.1,1.1c0.1,0.1,0.2,0.3,0.2,0.5l0,1.3v15.5c0,0.3,0,0.6,0,0.8L368.5,372.6L368.5,372.6z"/>
			<path id="XMLID_145_" class="st4" d="M336.1,322.5c0.3,0,0.6,0.1,0.8,0.4c0.2,0.2,0.4,0.4,0.6,0.6c0.1,0.1,0.2,0.2,0.3,0.3
				l29.3,29.3c0.3,0.3,0.6,0.6,0.9,0.9l0.2,0.2c0.1,0.1,0.2,0.3,0.2,0.5v0.6c0,0.2,0,0.4,0,0.7v7.5v1.9c0,2,0,4.1,0,6.1
				c0,0.3,0,0.6,0,0.9v0c-0.1,0-0.1-0.1-0.1-0.1c-0.3-0.3-0.6-0.6-0.9-0.9l-1.1-1.1c-15.6-15.6-31.1-31.1-46.7-46.7
				c-0.1-0.1-0.2-0.2-0.3-0.3c-0.3-0.3-0.5-0.5-0.8-0.8c0,0,0,0,0.1,0c0.4,0,0.8,0,1.1,0h9.9h3.8h1.9c0.1,0,0.1,0,0.2,0s0.2,0,0.2,0
				c0.1,0,0.2,0,0.3,0C336.1,322.5,336.1,322.5,336.1,322.5 M336.1,322.3c0,0-0.1,0-0.1,0c-0.1,0-0.2,0-0.3,0c-0.1,0-0.3,0-0.5,0
				c-1.9,0-3.8,0-5.7,0c-3.3,0-6.6,0-9.9,0c-0.4,0-0.8,0-1.1,0c-0.1,0-0.2,0-0.3,0.1c-0.1,0.1-0.1,0.2-0.1,0.3
				c0.3,0.5,0.8,0.8,1.2,1.3c15.9,15.9,31.8,31.8,47.8,47.8c0.3,0.3,0.6,0.6,0.9,0.9c0.1,0.1,0.1,0.1,0.2,0.2c0,0,0.1,0,0.1,0
				c0,0,0,0,0,0c0.1,0,0.2-0.1,0.2-0.2c0-0.3,0-0.7,0-1c0-2.7,0-5.3,0-8l0,0c0-2.5,0-5,0-7.5c0-0.4,0-0.9,0-1.3
				c0-0.3-0.1-0.5-0.3-0.6c-0.4-0.4-0.7-0.8-1.1-1.1c-9.8-9.8-19.5-19.6-29.3-29.3c-0.3-0.3-0.6-0.6-0.9-0.9
				C336.9,322.4,336.5,322.3,336.1,322.3L336.1,322.3z"/>
		</g>
		<g id="XMLID_2_" class="st0">
			<path id="XMLID_143_" class="st5" d="M319.8,471.9c-0.4,0-0.7,0-1.1,0l-0.2,0l0-0.1c0.1-0.1,0.2-0.2,0.3-0.3
				c0.3-0.3,0.5-0.6,0.8-0.8c0,0,33-33,47.8-47.8c0.1-0.1,0.2-0.2,0.3-0.3c0.3-0.3,0.5-0.6,0.9-0.8c0.1,0.1,0.1,0.1,0.1,0.2
				c0,0.4,0,0.9,0,1.3v15.3c0,0.4,0,0.9,0,1.3c0,0.1,0,0.2-0.1,0.3c-0.3,0.3-0.6,0.6-0.9,0.9L338,470.6l-1.1,1.1
				c-0.1,0.1-0.3,0.2-0.5,0.2l-1,0h-6.2L319.8,471.9z"/>
			<path id="XMLID_140_" class="st4" d="M368.5,421.9C368.5,421.9,368.5,421.9,368.5,421.9c0,0.5,0,0.9,0,1.3v5.6v1.9v1.9
				c0,1.9,0,3.9,0,5.8c0,0.4,0,0.9,0,1.3c0,0.1,0,0.2-0.1,0.2c-0.3,0.3-0.6,0.6-0.9,0.9l-4.6,4.6l-1.4,1.4l-3.5,3.5l-20.1,20.1
				c-0.3,0.3-0.5,0.5-0.8,0.8l-0.3,0.3c-0.1,0.1-0.3,0.2-0.5,0.2h-0.5c-0.2,0-0.3,0-0.5,0h-0.5h-6.1h-8.9c-0.3,0-0.7,0-1,0l-0.1,0
				c0.1-0.1,0.1-0.1,0.2-0.2c0.3-0.3,0.5-0.5,0.8-0.8l0.1-0.1l3.2-3.2c14.9-14.9,29.7-29.7,44.5-44.6c0.1-0.1,0.2-0.2,0.3-0.3
				C368,422.3,368.2,422,368.5,421.9 M368.5,421.6C368.5,421.6,368.4,421.6,368.5,421.6c-0.5,0.3-0.9,0.7-1.2,1.1
				c-15.9,15.9-31.8,31.8-47.8,47.8c-0.3,0.3-0.6,0.6-0.9,0.9c-0.1,0.1-0.2,0.2-0.3,0.3c0,0,0,0.1,0,0.1c0,0.1,0.1,0.2,0.2,0.2
				c0.4,0,0.8,0,1.3,0c3,0,5.9,0,8.9,0c2.2,0,4.4,0,6.7,0c0.3,0,0.7,0,1,0c0.3,0,0.5-0.1,0.6-0.3c0.4-0.4,0.8-0.7,1.1-1.1
				c7.9-7.9,15.7-15.7,23.6-23.6c2-2,4-4,6-6c0.3-0.3,0.6-0.6,0.9-0.9c0.1-0.1,0.2-0.2,0.2-0.4c0-0.4,0-0.9,0-1.3c0-2.6,0-5.1,0-7.7
				c0-2.5,0-5,0-7.5c0-0.4,0-0.9,0-1.3c0-0.1,0-0.2-0.1-0.3C368.6,421.6,368.5,421.6,368.5,421.6L368.5,421.6z"/>
		</g>
	</g>
</g>
<g id="Camada_5" class="st0">
	<g id="XMLID_127_" class="st4">
		<path id="XMLID_62_" class="st6" d="M267.6,397c0-10.1,0-20.2,0-30.2c0-0.5,0-1-0.1-1.5c0-0.1-0.2-0.3-0.3-0.3c0,0-0.1,0-0.1,0
			c-0.1,0-0.3,0-0.5,0c-0.4,0-0.7,0-1.1,0c-14.3,0-28.6,0-42.9,0c-0.6,0-1.1,0-1.7,0c-0.2,0-0.4,0.2-0.4,0.4c0,0.1,0,0.2,0,0.3
			c0,0.4,0,0.7,0,1.1c0,20.2,0,40.3,0,60.5c0,0.5,0,1,0,1.5c0,0.1,0.2,0.3,0.3,0.3c0.1,0,0.2,0.1,0.3,0.1c0.5,0,1,0,1.5,0
			c5.1,0,10.2,0,15.3,0c0.5,0,0.9,0,1.4,0.1c0.2,0,0.4,0.2,0.4,0.4c0,0.1,0,0.2,0,0.3c0,0.3,0,0.6,0,0.9c0,13.2,0,26.5,0,39.7
			c0,0.4,0,0.8-0.1,1.2c0,0.1-0.2,0.3-0.3,0.3c-0.1,0-0.2,0-0.3,0c-1.8,0-3.7,0-5.5,0c-0.2,0-0.4-0.1-0.5-0.2
			c-0.4-0.4-0.9-0.9-1.3-1.3c-10.8-10.8-21.5-21.5-32.3-32.3c-9.7-9.7-19.4-19.4-29.2-29.2c-0.4-0.4-0.8-0.8-1.2-1.2
			c-0.1-0.1-0.1-0.2-0.1-0.3c0-0.3,0-0.5,0-0.8c0-6.5,0-13,0-19.5c0-0.3,0-0.5,0-0.8c0-0.1,0.1-0.2,0.1-0.3c0.1-0.1,0.2-0.2,0.3-0.4
			c0.3-0.3,0.6-0.6,0.9-0.9c20.4-20.4,40.9-40.9,61.3-61.3c0.5-0.5,0.9-0.9,1.4-1.4c0.2-0.1,0.3-0.2,0.6-0.2c0.3,0,0.6,0,0.9,0
			c6.3,0,12.5,0,18.8,0c0.4,0,0.8,0,1.2,0c0.1,0,0.2,0,0.3,0.1c0.1,0.1,0.2,0.2,0.4,0.3c0.4,0.4,0.7,0.7,1.1,1.1
			c20.4,20.4,40.8,40.8,61.2,61.2c0.4,0.4,0.9,0.9,1.3,1.3c0.1,0.1,0.2,0.3,0.2,0.5c0,0.3,0,0.5,0,0.8c0,6.4,0,12.8,0,19.2
			c0,0.3,0,0.6,0,0.9c0,0.1,0,0.2-0.1,0.3c-0.1,0.1-0.2,0.2-0.3,0.4c-0.4,0.4-0.7,0.7-1.1,1.1c-20.5,20.4-40.9,40.9-61.3,61.3
			c-0.4,0.4-0.8,0.8-1.2,1.2c-0.2,0.1-0.3,0.2-0.6,0.2c-1.8,0-3.7,0-5.5,0c-0.1,0-0.2,0-0.3-0.1c-0.1-0.1-0.2-0.1-0.2-0.2
			c-0.1-0.1-0.1-0.3-0.1-0.5c0-0.5,0-1,0-1.5c0-12.9,0-25.8,0-38.6c0-0.5,0-0.9,0-1.4c0-0.1,0-0.2,0.1-0.3c0-0.1,0.2-0.3,0.3-0.3
			c0.2,0,0.4,0,0.6,0c0.8,0,1.6,0,2.4,0c4.7,0,9.5,0,14.2,0c0.4,0,0.8,0,1.2,0c0.2,0,0.4-0.2,0.4-0.4c0-0.3,0-0.6,0-0.9
			c0-1.5,0-3,0-4.4C267.6,414.5,267.6,405.8,267.6,397z"/>
		<path id="XMLID_56_" class="st6" d="M190.5,322c4.5,0,9,0,13.4,0c0.5,0,0.9,0,1.4,0c0.1,0,0.3,0.2,0.3,0.3c0,0.1,0.1,0.3,0.1,0.4
			c0,1.7,0,3.5,0,5.2c0,0.4-0.1,0.7-0.4,0.9c-0.3,0.3-0.5,0.5-0.8,0.8c-9.3,9.3-18.5,18.5-27.8,27.7c-1.6,1.6-0.9,1.3-3,1.3
			c-1.2,0-2.3,0-3.5,0c-0.3,0-0.5,0-0.8,0c-0.2,0-0.4-0.2-0.4-0.4c0-0.4-0.1-0.8-0.1-1.2c0-4,0-8,0-12.1c0-5,0-10.1,0-15.1
			c0-0.4,0-0.8,0-1.2c0-0.1,0.1-0.2,0.1-0.3c0.1-0.1,0.1-0.2,0.2-0.2c1.9-1.9,3.9-3.9,5.8-5.8c0.2-0.2,0.4-0.3,0.7-0.3
			c0.5,0,1,0,1.5,0C181.7,322,186.1,322,190.5,322z"/>
		<path id="XMLID_51_" class="st6" d="M190.4,472c-4.4,0-8.8,0-13.1,0c-0.5,0-1,0-1.5,0c-0.1,0-0.3-0.1-0.4-0.2s-0.2-0.2-0.3-0.3
			c-1.8-1.8-3.7-3.7-5.5-5.5c-0.1-0.1-0.2-0.2-0.3-0.3c-0.1-0.1-0.2-0.3-0.2-0.4c0-0.4,0-0.8,0-1.2c0-9,0-18,0-27c0-0.4,0-0.8,0-1.2
			c0-0.2,0.2-0.4,0.4-0.4c0.1,0,0.2,0,0.3,0c1.8,0,3.6,0,5.3,0c0.1,0,0.2,0,0.3,0c0.1,0,0.2,0.1,0.3,0.1c0.1,0.1,0.2,0.2,0.3,0.3
			c0.3,0.3,0.7,0.6,1,1c9.1,9.1,18.2,18.2,27.3,27.3c0.4,0.4,0.8,0.8,1.2,1.2c0.2,0.2,0.2,0.3,0.2,0.5c0,0.1,0,0.2,0,0.3
			c0,1.7,0,3.4,0,5c0,0.2,0,0.4-0.1,0.6c0,0.1-0.1,0.2-0.2,0.2c-0.1,0-0.2,0.1-0.3,0.1c-0.5,0-1,0-1.5,0
			C199.2,472,194.8,472,190.4,472z"/>
		<path id="XMLID_27_" class="st6" d="M319,450.6c0,4.5,0,9,0,13.4c0,0.4,0,0.8,0,1.2c0,0.2-0.1,0.3-0.2,0.4
			c-0.1,0.1-0.2,0.2-0.3,0.3c-1.8,1.8-3.6,3.6-5.4,5.4c-0.1,0.1-0.3,0.3-0.5,0.4c-0.1,0.1-0.2,0.1-0.3,0.1s-0.2,0-0.3,0
			c-0.4,0-0.8,0-1.2,0c-8.9,0-17.8,0-26.7,0c-0.5,0-1,0.1-1.5-0.1c-0.1,0-0.2-0.1-0.2-0.2c-0.1-0.1-0.1-0.2-0.1-0.3
			c0-1.8,0-3.7,0-5.5c0-0.3,0.1-0.5,0.3-0.7c0.1-0.1,0.2-0.2,0.3-0.3c0.2-0.2,0.4-0.4,0.5-0.5c9.3-9.3,18.6-18.6,28-27.9
			c0.3-0.3,0.7-0.6,1-1c0.1-0.1,0.2-0.1,0.3-0.1c0.1,0,0.2,0,0.3,0c1.8,0,3.6,0,5.3,0c0.1,0,0.2,0,0.3,0c0.1,0,0.3,0.2,0.3,0.3
			c0,0.4,0,0.8,0,1.2c0,4.3,0,8.6,0,13C319,450.1,319,450.4,319,450.6z"/>
		<path id="XMLID_25_" class="st6" d="M319,343.4c0,4.6,0,9.2,0,13.7c0,0.4,0.1,0.8-0.1,1.2c0,0.1-0.1,0.2-0.2,0.2
			c-0.1,0-0.2,0.1-0.3,0.1c-1.8,0-3.7,0-5.5,0c-0.2,0-0.4-0.1-0.5-0.2c-0.2-0.2-0.4-0.4-0.5-0.5c-0.7-0.7-1.4-1.4-2.2-2.2
			c-8.6-8.6-17.3-17.3-25.9-25.9c-0.4-0.4-0.8-0.8-1.2-1.2c-0.1-0.1-0.2-0.3-0.2-0.5c0-0.3,0-0.5,0-0.8c0-1.3,0-2.6,0-4
			c0-0.3,0-0.6,0-0.9c0-0.2,0.2-0.4,0.4-0.4c0.2,0,0.4,0,0.6,0c0.7,0,1.3,0,2,0c8.6,0,17.3,0,26,0c1.5,0,1.2-0.1,2.3,0.9
			c1.6,1.5,3.1,3.1,4.6,4.6c0.2,0.2,0.4,0.4,0.6,0.7c0.1,0.1,0.2,0.3,0.2,0.4c0,0.5,0,0.9,0,1.4C319,334.5,319,339,319,343.4z"/>
	</g>
</g>
<rect x="501.3" y="448.6" class="st7" width="531.7" height="9.4"/>
</svg>
